<?xml version="1.0" encoding="UTF-8" standalone="no"?>
<svg
   xmlns:dc="http://purl.org/dc/elements/1.1/"
   xmlns:cc="http://creativecommons.org/ns#"
   xmlns:rdf="http://www.w3.org/1999/02/22-rdf-syntax-ns#"
   xmlns:svg="http://www.w3.org/2000/svg"
   xmlns="http://www.w3.org/2000/svg"
   xmlns:sodipodi="http://sodipodi.sourceforge.net/DTD/sodipodi-0.dtd"
   xmlns:inkscape="http://www.inkscape.org/namespaces/inkscape"
   version="1.1"
   width="3300"
   height="2200"
   id="svg1823"
   sodipodi:docname="nextButton.blue.svg"
   inkscape:version="1.0.1 (c497b03c, 2020-09-10)">
  <metadata
     id="metadata1829">
    <rdf:RDF>
      <cc:Work
         rdf:about="">
        <dc:format>image/svg+xml</dc:format>
        <dc:type
           rdf:resource="http://purl.org/dc/dcmitype/StillImage" />
        <dc:title></dc:title>
      </cc:Work>
    </rdf:RDF>
  </metadata>
  <defs
     id="defs1827" />
  <sodipodi:namedview
     pagecolor="#ffffff"
     bordercolor="#666666"
     borderopacity="1"
     objecttolerance="10"
     gridtolerance="10"
     guidetolerance="10"
     inkscape:pageopacity="0"
     inkscape:pageshadow="2"
     inkscape:window-width="1440"
     inkscape:window-height="791"
     id="namedview1825"
     showgrid="false"
     inkscape:zoom="0.275"
     inkscape:cx="1619.0909"
     inkscape:cy="1383.6364"
     inkscape:window-x="0"
     inkscape:window-y="23"
     inkscape:window-maximized="0"
     inkscape:current-layer="Symbols"
     inkscape:document-rotation="0" />
  <!--glyph: "uni100105.medium", point size: 100.000000, font version: "Version 16.0d18e1", template writer version: "8"-->
  <g
     id="Notes">
    <rect
       height="2200"
       id="artboard"
       style="fill:white;opacity:1"
       width="3300"
       x="0"
       y="0" />
    <line
       id=""
       style="fill:none;stroke:black;opacity:1;stroke-width:0.5;"
       x1="263"
       x2="3036"
       y1="292"
       y2="292" />
    <text
       style="stroke:none;fill:black;font-family:-apple-system,&quot;SF Pro Display&quot;,&quot;SF Pro Text&quot;,Helvetica,sans-serif;font-weight:bold;"
       transform="matrix(1 0 0 1 263 322)"
       id="text1637">Weight/Scale Variations</text>
    <text
       style="stroke:none;fill:black;font-family:-apple-system,&quot;SF Pro Display&quot;,&quot;SF Pro Text&quot;,Helvetica,sans-serif;text-anchor:middle;"
       transform="matrix(1 0 0 1 559.711 322)"
       id="text1639">Ultralight</text>
    <text
       style="stroke:none;fill:black;font-family:-apple-system,&quot;SF Pro Display&quot;,&quot;SF Pro Text&quot;,Helvetica,sans-serif;text-anchor:middle;"
       transform="matrix(1 0 0 1 856.422 322)"
       id="text1641">Thin</text>
    <text
       style="stroke:none;fill:black;font-family:-apple-system,&quot;SF Pro Display&quot;,&quot;SF Pro Text&quot;,Helvetica,sans-serif;text-anchor:middle;"
       transform="matrix(1 0 0 1 1153.13 322)"
       id="text1643">Light</text>
    <text
       style="stroke:none;fill:black;font-family:-apple-system,&quot;SF Pro Display&quot;,&quot;SF Pro Text&quot;,Helvetica,sans-serif;text-anchor:middle;"
       transform="matrix(1 0 0 1 1449.84 322)"
       id="text1645">Regular</text>
    <text
       style="stroke:none;fill:black;font-family:-apple-system,&quot;SF Pro Display&quot;,&quot;SF Pro Text&quot;,Helvetica,sans-serif;text-anchor:middle;"
       transform="matrix(1 0 0 1 1746.56 322)"
       id="text1647">Medium</text>
    <text
       style="stroke:none;fill:black;font-family:-apple-system,&quot;SF Pro Display&quot;,&quot;SF Pro Text&quot;,Helvetica,sans-serif;text-anchor:middle;"
       transform="matrix(1 0 0 1 2043.27 322)"
       id="text1649">Semibold</text>
    <text
       style="stroke:none;fill:black;font-family:-apple-system,&quot;SF Pro Display&quot;,&quot;SF Pro Text&quot;,Helvetica,sans-serif;text-anchor:middle;"
       transform="matrix(1 0 0 1 2339.98 322)"
       id="text1651">Bold</text>
    <text
       style="stroke:none;fill:black;font-family:-apple-system,&quot;SF Pro Display&quot;,&quot;SF Pro Text&quot;,Helvetica,sans-serif;text-anchor:middle;"
       transform="matrix(1 0 0 1 2636.69 322)"
       id="text1653">Heavy</text>
    <text
       style="stroke:none;fill:black;font-family:-apple-system,&quot;SF Pro Display&quot;,&quot;SF Pro Text&quot;,Helvetica,sans-serif;text-anchor:middle;"
       transform="matrix(1 0 0 1 2933.4 322)"
       id="text1655">Black</text>
    <line
       id="line1657"
       style="fill:none;stroke:black;opacity:1;stroke-width:0.5;"
       x1="263"
       x2="3036"
       y1="1903"
       y2="1903" />
    <g
       id="g1661"
       transform="matrix(1 0 0 1 263 1933)">
      <path
         d="M9.24805 0.830078C13.5547 0.830078 17.1387-2.74414 17.1387-7.05078C17.1387-11.3574 13.5449-14.9316 9.23828-14.9316C4.94141-14.9316 1.36719-11.3574 1.36719-7.05078C1.36719-2.74414 4.95117 0.830078 9.24805 0.830078ZM9.24805-0.654297C5.70312-0.654297 2.87109-3.49609 2.87109-7.05078C2.87109-10.6055 5.69336-13.4473 9.23828-13.4473C12.793-13.4473 15.6348-10.6055 15.6445-7.05078C15.6543-3.49609 12.8027-0.654297 9.24805-0.654297ZM6.39648-6.31836L8.50586-6.31836L8.50586-4.19922C8.50586-3.75977 8.79883-3.45703 9.22852-3.45703C9.67773-3.45703 9.9707-3.75977 9.9707-4.19922L9.9707-6.31836L12.0996-6.31836C12.5391-6.31836 12.8418-6.61133 12.8418-7.04102C12.8418-7.48047 12.5391-7.7832 12.0996-7.7832L9.9707-7.7832L9.9707-9.89258C9.9707-10.3418 9.67773-10.6445 9.22852-10.6445C8.79883-10.6445 8.50586-10.3418 8.50586-9.89258L8.50586-7.7832L6.39648-7.7832C5.94727-7.7832 5.64453-7.48047 5.64453-7.04102C5.64453-6.61133 5.94727-6.31836 6.39648-6.31836Z"
         id="path1659" />
    </g>
    <g
       id="g1665"
       transform="matrix(1 0 0 1 281.506 1933)">
      <path
         d="M11.709 2.91016C17.1582 2.91016 21.6699-1.61133 21.6699-7.05078C21.6699-12.5 17.1484-17.0117 11.6992-17.0117C6.25977-17.0117 1.74805-12.5 1.74805-7.05078C1.74805-1.61133 6.26953 2.91016 11.709 2.91016ZM11.709 1.25C7.09961 1.25 3.41797-2.44141 3.41797-7.05078C3.41797-11.6602 7.08984-15.3516 11.6992-15.3516C16.3086-15.3516 20-11.6602 20.0098-7.05078C20.0195-2.44141 16.3184 1.25 11.709 1.25ZM7.98828-6.23047L10.8789-6.23047L10.8789-3.32031C10.8789-2.83203 11.2109-2.5 11.6895-2.5C12.1777-2.5 12.5195-2.83203 12.5195-3.32031L12.5195-6.23047L15.4297-6.23047C15.918-6.23047 16.25-6.5625 16.25-7.04102C16.25-7.5293 15.918-7.87109 15.4297-7.87109L12.5195-7.87109L12.5195-10.7617C12.5195-11.2695 12.1777-11.6016 11.6895-11.6016C11.2109-11.6016 10.8789-11.2598 10.8789-10.7617L10.8789-7.87109L7.98828-7.87109C7.48047-7.87109 7.14844-7.5293 7.14844-7.04102C7.14844-6.5625 7.49023-6.23047 7.98828-6.23047Z"
         id="path1663" />
    </g>
    <g
       id="g1669"
       transform="matrix(1 0 0 1 304.924 1933)">
      <path
         d="M14.9707 5.66406C21.9336 5.66406 27.6953-0.0976562 27.6953-7.05078C27.6953-14.0137 21.9238-19.7754 14.9609-19.7754C8.00781-19.7754 2.25586-14.0137 2.25586-7.05078C2.25586-0.0976562 8.01758 5.66406 14.9707 5.66406ZM14.9707 3.84766C8.93555 3.84766 4.08203-1.01562 4.08203-7.05078C4.08203-13.0957 8.92578-17.9492 14.9609-17.9492C21.0059-17.9492 25.8594-13.0957 25.8691-7.05078C25.8789-1.01562 21.0156 3.84766 14.9707 3.84766ZM10.0586-6.14258L14.0625-6.14258L14.0625-2.12891C14.0625-1.5918 14.4336-1.2207 14.9512-1.2207C15.4883-1.2207 15.8594-1.5918 15.8594-2.12891L15.8594-6.14258L19.8828-6.14258C20.4102-6.14258 20.791-6.51367 20.791-7.03125C20.791-7.56836 20.4199-7.94922 19.8828-7.94922L15.8594-7.94922L15.8594-11.9531C15.8594-12.5098 15.4883-12.8809 14.9512-12.8809C14.4336-12.8809 14.0625-12.5 14.0625-11.9531L14.0625-7.94922L10.0586-7.94922C9.50195-7.94922 9.13086-7.56836 9.13086-7.03125C9.13086-6.51367 9.51172-6.14258 10.0586-6.14258Z"
         id="path1667" />
    </g>
    <text
       style="stroke:none;fill:black;font-family:-apple-system,&quot;SF Pro Display&quot;,&quot;SF Pro Text&quot;,Helvetica,sans-serif;font-weight:bold;"
       transform="matrix(1 0 0 1 263 1953)"
       id="text1671">Design Variations</text>
    <text
       style="stroke:none;fill:black;font-family:-apple-system,&quot;SF Pro Display&quot;,&quot;SF Pro Text&quot;,Helvetica,sans-serif;"
       transform="matrix(1 0 0 1 263 1971)"
       id="text1673">Symbols are supported in up to nine weights and three scales.</text>
    <text
       style="stroke:none;fill:black;font-family:-apple-system,&quot;SF Pro Display&quot;,&quot;SF Pro Text&quot;,Helvetica,sans-serif;"
       transform="matrix(1 0 0 1 263 1989)"
       id="text1675">For optimal layout with text and other symbols, vertically align</text>
    <text
       style="stroke:none;fill:black;font-family:-apple-system,&quot;SF Pro Display&quot;,&quot;SF Pro Text&quot;,Helvetica,sans-serif;"
       transform="matrix(1 0 0 1 263 2007)"
       id="text1677">symbols with the adjacent text.</text>
    <line
       id="line1679"
       style="fill:none;stroke:#00AEEF;stroke-width:0.5;opacity:1.0;"
       x1="776"
       x2="776"
       y1="1919"
       y2="1933" />
    <g
       id="g1683"
       transform="matrix(1 0 0 1 776 1933)">
      <path
         d="M3.31055 0.126953C3.82812 0.126953 4.08203-0.0683594 4.26758-0.605469L5.52734-4.0625L11.2891-4.0625L12.5488-0.605469C12.7344-0.0683594 12.9883 0.126953 13.4961 0.126953C14.0137 0.126953 14.3457-0.185547 14.3457-0.673828C14.3457-0.839844 14.3164-0.986328 14.2383-1.20117L9.6582-13.3887C9.43359-13.9941 9.0332-14.2871 8.4082-14.2871C7.80273-14.2871 7.39258-13.9941 7.17773-13.3984L2.59766-1.19141C2.51953-0.976562 2.49023-0.830078 2.49023-0.664062C2.49023-0.175781 2.80273 0.126953 3.31055 0.126953ZM6.00586-5.53711L8.37891-12.1094L8.42773-12.1094L10.8008-5.53711Z"
         id="path1681" />
    </g>
    <line
       id="line1685"
       style="fill:none;stroke:#00AEEF;stroke-width:0.5;opacity:1.0;"
       x1="792.836"
       x2="792.836"
       y1="1919"
       y2="1933" />
    <text
       style="stroke:none;fill:black;font-family:-apple-system,&quot;SF Pro Display&quot;,&quot;SF Pro Text&quot;,Helvetica,sans-serif;font-weight:bold;"
       transform="matrix(1 0 0 1 776 1953)"
       id="text1687">Margins</text>
    <text
       style="stroke:none;fill:black;font-family:-apple-system,&quot;SF Pro Display&quot;,&quot;SF Pro Text&quot;,Helvetica,sans-serif;"
       transform="matrix(1 0 0 1 776 1971)"
       id="text1689">Leading and trailing margins on the left and right side of each symbol</text>
    <text
       style="stroke:none;fill:black;font-family:-apple-system,&quot;SF Pro Display&quot;,&quot;SF Pro Text&quot;,Helvetica,sans-serif;"
       transform="matrix(1 0 0 1 776 1989)"
       id="text1691">can be adjusted by modifying the x-location of the margin guidelines.</text>
    <text
       style="stroke:none;fill:black;font-family:-apple-system,&quot;SF Pro Display&quot;,&quot;SF Pro Text&quot;,Helvetica,sans-serif;"
       transform="matrix(1 0 0 1 776 2007)"
       id="text1693">Modifications are automatically applied proportionally to all</text>
    <text
       style="stroke:none;fill:black;font-family:-apple-system,&quot;SF Pro Display&quot;,&quot;SF Pro Text&quot;,Helvetica,sans-serif;"
       transform="matrix(1 0 0 1 776 2025)"
       id="text1695">scales and weights.</text>
    <g
       id="g1699"
       transform="matrix(1 0 0 1 1289 1933)">
      <path
         d="M2.8418 1.86523L4.54102 3.57422C5.40039 4.44336 6.38672 4.38477 7.31445 3.35938L17.4902-7.85156C17.7539-7.76367 18.0273-7.7832 18.3398-7.8418L19.4043-8.03711L20.0684-7.36328L20.0293-6.80664C19.9902-6.30859 20.1172-5.92773 20.6055-5.44922L21.3672-4.70703C21.8457-4.22852 22.4609-4.19922 22.9297-4.66797L25.8398-7.58789C26.3086-8.05664 26.2891-8.65234 25.8105-9.13086L25.0391-9.89258C24.5605-10.3711 24.1895-10.5273 23.7109-10.4883L23.1348-10.4395L22.4902-11.0742L22.7344-12.1973C22.8613-12.7637 22.7051-13.2031 22.1191-13.7891L19.9219-15.9766C16.582-19.2969 12.1484-19.2188 9.25781-16.3281C8.83789-15.918 8.80859-15.3418 9.04297-14.9512C9.27734-14.5898 9.73633-14.3555 10.3809-14.5215C11.8457-14.8633 13.3691-14.9219 14.7949-13.9844L14.209-12.5293C14.0137-12.0508 13.9844-11.6504 14.1113-11.2891L3.04688-0.898438C2.06055 0.0195312 1.98242 0.996094 2.8418 1.86523ZM10.752-15.957C13.1836-17.7344 16.4746-17.4316 18.7012-15.2051L21.1328-12.793C21.3672-12.5586 21.4062-12.373 21.3379-12.0312L21.0156-10.5469L22.5195-9.0625L23.5059-9.12109C23.7598-9.13086 23.8379-9.11133 24.0332-8.91602L24.6094-8.33984L22.168-5.89844L21.5918-6.47461C21.3965-6.66992 21.3672-6.74805 21.377-7.01172L21.4453-7.98828L19.9512-9.47266L18.4277-9.21875C18.1055-9.15039 17.959-9.17969 17.7148-9.41406L15.7129-11.416C15.459-11.6504 15.4297-11.8164 15.5859-12.1875L16.4648-14.2773C14.9023-15.7324 12.8711-16.3574 10.8398-15.7617C10.6836-15.7227 10.625-15.8496 10.752-15.957ZM5.27344 2.30469L4.10156 1.14258C3.63281 0.683594 3.74023 0.341797 4.14062-0.0195312L14.9512-10.1953L16.416-8.71094L6.42578 2.27539C6.07422 2.67578 5.74219 2.77344 5.27344 2.30469Z"
         id="path1697" />
    </g>
    <text
       style="stroke:none;fill:black;font-family:-apple-system,&quot;SF Pro Display&quot;,&quot;SF Pro Text&quot;,Helvetica,sans-serif;font-weight:bold;"
       transform="matrix(1 0 0 1 1289 1953)"
       id="text1701">Exporting</text>
    <text
       style="stroke:none;fill:black;font-family:-apple-system,&quot;SF Pro Display&quot;,&quot;SF Pro Text&quot;,Helvetica,sans-serif;"
       transform="matrix(1 0 0 1 1289 1971)"
       id="text1703">Symbols should be outlined when exporting to ensure the</text>
    <text
       style="stroke:none;fill:black;font-family:-apple-system,&quot;SF Pro Display&quot;,&quot;SF Pro Text&quot;,Helvetica,sans-serif;"
       transform="matrix(1 0 0 1 1289 1989)"
       id="text1705">design is preserved when submitting to Xcode.</text>
    <text
       id="template-version"
       style="stroke:none;fill:black;font-family:-apple-system,&quot;SF Pro Display&quot;,&quot;SF Pro Text&quot;,Helvetica,sans-serif;text-anchor:end;"
       transform="matrix(1 0 0 1 3036 1933)">Template v.2.0</text>
    <text
       style="stroke:none;fill:black;font-family:-apple-system,&quot;SF Pro Display&quot;,&quot;SF Pro Text&quot;,Helvetica,sans-serif;text-anchor:end;"
       transform="matrix(1 0 0 1 3036 1951)"
       id="text1708">Requires Xcode 12 or greater</text>
    <text
       style="stroke:none;fill:black;font-family:-apple-system,&quot;SF Pro Display&quot;,&quot;SF Pro Text&quot;,Helvetica,sans-serif;text-anchor:end;"
       transform="matrix(1 0 0 1 3036 1969)"
       id="text1710">Generated from chevron.right.square.fill</text>
    <text
       style="stroke:none;fill:black;font-family:-apple-system,&quot;SF Pro Display&quot;,&quot;SF Pro Text&quot;,Helvetica,sans-serif;text-anchor:end;"
       transform="matrix(1 0 0 1 3036 1987)"
       id="text1712">Typeset at 100 points</text>
    <text
       style="stroke:none;fill:black;font-family:-apple-system,&quot;SF Pro Display&quot;,&quot;SF Pro Text&quot;,Helvetica,sans-serif;"
       transform="matrix(1 0 0 1 263 726)"
       id="text1714">Small</text>
    <text
       style="stroke:none;fill:black;font-family:-apple-system,&quot;SF Pro Display&quot;,&quot;SF Pro Text&quot;,Helvetica,sans-serif;"
       transform="matrix(1 0 0 1 263 1156)"
       id="text1716">Medium</text>
    <text
       style="stroke:none;fill:black;font-family:-apple-system,&quot;SF Pro Display&quot;,&quot;SF Pro Text&quot;,Helvetica,sans-serif;"
       transform="matrix(1 0 0 1 263 1586)"
       id="text1718">Large</text>
  </g>
  <g
     id="Guides">
    <g
       id="H-reference"
       style="fill:#27AAE1;stroke:none;"
       transform="matrix(1 0 0 1 339 696)">
      <path
         d="M0.976562 0L3.66211 0L12.9883-24.4629L45.752-24.4629L55.127 0L57.7637 0L30.6152-70.459L28.125-70.459ZM29.3457-67.1387L29.4434-67.1387L44.873-26.709L13.8672-26.709Z"
         id="path1721" />
    </g>
    <line
       id="Baseline-S"
       style="fill:none;stroke:#27AAE1;opacity:1;stroke-width:0.5;"
       x1="263"
       x2="3036"
       y1="696"
       y2="696" />
    <line
       id="Capline-S"
       style="fill:none;stroke:#27AAE1;opacity:1;stroke-width:0.5;"
       x1="263"
       x2="3036"
       y1="625.541"
       y2="625.541" />
    <g
       id="g1728"
       style="fill:#27AAE1;stroke:none;"
       transform="matrix(1 0 0 1 339 1126)">
      <path
         d="M0.976562 0L3.66211 0L12.9883-24.4629L45.752-24.4629L55.127 0L57.7637 0L30.6152-70.459L28.125-70.459ZM29.3457-67.1387L29.4434-67.1387L44.873-26.709L13.8672-26.709Z"
         id="path1726" />
    </g>
    <line
       id="Baseline-M"
       style="fill:none;stroke:#27AAE1;opacity:1;stroke-width:0.5;"
       x1="263"
       x2="3036"
       y1="1126"
       y2="1126" />
    <line
       id="Capline-M"
       style="fill:none;stroke:#27AAE1;opacity:1;stroke-width:0.5;"
       x1="263"
       x2="3036"
       y1="1055.54"
       y2="1055.54" />
    <g
       id="g1734"
       style="fill:#27AAE1;stroke:none;"
       transform="matrix(1 0 0 1 339 1556)">
      <path
         d="M0.976562 0L3.66211 0L12.9883-24.4629L45.752-24.4629L55.127 0L57.7637 0L30.6152-70.459L28.125-70.459ZM29.3457-67.1387L29.4434-67.1387L44.873-26.709L13.8672-26.709Z"
         id="path1732" />
    </g>
    <line
       id="Baseline-L"
       style="fill:none;stroke:#27AAE1;opacity:1;stroke-width:0.5;"
       x1="263"
       x2="3036"
       y1="1556"
       y2="1556" />
    <line
       id="Capline-L"
       style="fill:none;stroke:#27AAE1;opacity:1;stroke-width:0.5;"
       x1="263"
       x2="3036"
       y1="1485.54"
       y2="1485.54" />
    <line
       id="left-margin"
       style="fill:none;stroke:#00AEEF;stroke-width:0.5;opacity:1.0;"
       x1="1392.45"
       x2="1392.45"
       y1="1030.79"
       y2="1150.12" />
    <line
       id="right-margin"
       style="fill:none;stroke:#00AEEF;stroke-width:0.5;opacity:1.0;"
       x1="1507.24"
       x2="1507.24"
       y1="1030.79"
       y2="1150.12" />
  </g>
  <g
     id="Symbols">
    <g
       id="Black-L"
       transform="matrix(1 0 0 1 2855.62 1556)"
       style="fill:#03f7eb;fill-opacity:1">
      <path
         d="M39.9902 26.5137L115.576 26.5137C130.811 26.5137 139.502 17.8711 139.502 2.68555L139.502-73.0957C139.502-88.2812 130.811-96.875 115.576-96.875L39.9902-96.875C24.7559-96.875 16.0645-88.2812 16.0645-73.0957L16.0645 2.68555C16.0645 17.8711 24.7559 26.5137 39.9902 26.5137ZM63.623-2.44141C60.3516-5.81055 60.5957-10.791 63.6719-13.7207L86.7676-35.2051L63.6719-56.5918C60.5469-59.5703 60.5469-64.8438 63.8184-67.8711C66.748-70.5078 71.5332-70.6543 74.707-67.627L100-44.1895C105.078-39.4043 105.078-30.9082 100-26.123L74.707-2.58789C71.875 0.0488281 66.3086 0.0976562 63.623-2.44141Z"
         id="path1741"
         style="fill:#03f7eb;fill-opacity:1" />
    </g>
    <g
       id="Heavy-L"
       transform="matrix(1 0 0 1 2559.93 1556)"
       style="fill:#03f7eb;fill-opacity:1">
      <path
         d="M38.8184 25.4883L114.697 25.4883C129.346 25.4883 137.451 17.4316 137.451 2.88086L137.451-73.2422C137.451-87.793 129.346-95.8496 114.697-95.8496L38.8184-95.8496C24.2188-95.8496 16.0645-87.793 16.0645-73.2422L16.0645 2.88086C16.0645 17.4316 24.2188 25.4883 38.8184 25.4883ZM62.5488-2.68555C59.6191-5.61523 59.8145-10.0586 62.5488-12.6953L86.6211-35.2051L62.5488-57.6172C59.7656-60.3027 59.7656-64.9414 62.6953-67.6758C65.332-70.0684 69.5801-70.1172 72.4121-67.4316L98.1934-43.3594C102.881-39.0137 102.881-31.2988 98.1934-26.9531L72.4121-2.83203C69.8242-0.439453 64.8926-0.390625 62.5488-2.68555Z"
         id="path1744"
         style="fill:#03f7eb;fill-opacity:1" />
    </g>
    <g
       id="Bold-L"
       transform="matrix(1 0 0 1 2264.37 1556)"
       style="fill:#03f7eb;fill-opacity:1">
      <path
         d="M37.5 24.3652L113.721 24.3652C127.637 24.3652 135.156 16.8945 135.156 3.07617L135.156-73.3887C135.156-87.207 127.637-94.7266 113.721-94.7266L37.5-94.7266C23.6328-94.7266 16.0645-87.2559 16.0645-73.3887L16.0645 3.07617C16.0645 16.8945 23.6328 24.3652 37.5 24.3652ZM61.3281-2.92969C58.8379-5.46875 58.9355-9.27734 61.3281-11.5234L86.4258-35.2051L61.3281-58.7891C58.8867-61.084 58.9355-65.0879 61.4258-67.4316C63.7207-69.5312 67.3828-69.5312 69.8242-67.2363L96.2402-42.4316C100.391-38.5254 100.342-31.7871 96.2402-27.9297L69.8242-3.07617C67.627-0.976562 63.3789-0.927734 61.3281-2.92969Z"
         id="path1747"
         style="fill:#03f7eb;fill-opacity:1" />
    </g>
    <g
       id="Semibold-L"
       transform="matrix(1 0 0 1 1968.44 1556)"
       style="fill:#03f7eb;fill-opacity:1">
      <path
         d="M36.6211 23.584L113.037 23.584C126.514 23.584 133.594 16.5039 133.594 3.17383L133.594-73.5352C133.594-86.8164 126.514-93.9453 113.037-93.9453L36.6211-93.9453C23.1934-93.9453 16.0645-86.8652 16.0645-73.5352L16.0645 3.17383C16.0645 16.5527 23.1934 23.584 36.6211 23.584ZM60.4492-3.07617C58.252-5.32227 58.3496-8.74023 60.4492-10.7422L86.3281-35.2051L60.4492-59.6191C58.3008-61.6211 58.3496-65.1855 60.5469-67.2852C62.5977-69.1895 65.8691-69.1406 68.0664-67.0898L94.873-41.7969C98.6816-38.2324 98.6328-32.1289 94.873-28.5645L68.0664-3.27148C66.0645-1.36719 62.3047-1.31836 60.4492-3.07617Z"
         id="path1750"
         style="fill:#03f7eb;fill-opacity:1" />
    </g>
    <g
       id="Medium-L"
       transform="matrix(1 0 0 1 1672.31 1556)"
       style="fill:#03f7eb;fill-opacity:1">
      <path
         d="M35.9375 22.998L112.5 22.998C125.635 22.998 132.422 16.2109 132.422 3.27148L132.422-73.6328C132.422-86.5234 125.635-93.3105 112.5-93.3105L35.9375-93.3105C22.9004-93.3105 16.0645-86.5723 16.0645-73.6328L16.0645 3.27148C16.0645 16.2598 22.9004 22.998 35.9375 22.998ZM59.8145-3.22266C57.8125-5.22461 57.9102-8.34961 59.8145-10.1562L86.2305-35.2051L59.8145-60.2051C57.8613-62.0605 57.9102-65.2344 59.9121-67.1387C61.7676-68.8965 64.6973-68.8477 66.6992-66.9434L93.7988-41.3086C97.3633-37.9883 97.3145-32.373 93.7988-29.1016L66.6992-3.41797C64.8926-1.66016 61.5234-1.61133 59.8145-3.22266Z"
         id="path1753"
         style="fill:#03f7eb;fill-opacity:1" />
    </g>
    <g
       id="Regular-L"
       transform="matrix(1 0 0 1 1376.38 1556)"
       style="fill:#03f7eb;fill-opacity:1">
      <path
         d="M35.0586 22.2168L111.816 22.2168C124.463 22.2168 130.859 15.8691 130.859 3.41797L130.859-73.7305C130.859-86.1816 124.463-92.5293 111.816-92.5293L35.0586-92.5293C22.4609-92.5293 16.0645-86.2305 16.0645-73.7305L16.0645 3.41797C16.0645 15.918 22.4609 22.2168 35.0586 22.2168ZM58.9844-3.41797C57.2754-5.12695 57.3242-7.8125 58.9844-9.375L86.1328-35.2051L58.9844-60.9863C57.2754-62.5977 57.3242-65.332 59.0332-66.9922C60.6445-68.5059 63.2324-68.457 64.9414-66.7969L92.4805-40.6738C95.6543-37.6953 95.6055-32.666 92.4805-29.7363L64.9414-3.61328C63.3789-2.05078 60.4492-2.00195 58.9844-3.41797Z"
         id="path1756"
         style="fill:#03f7eb;fill-opacity:1" />
    </g>
    <g
       id="Light-L"
       transform="matrix(1 0 0 1 1080.5 1556)"
       style="fill:#03f7eb;fill-opacity:1">
      <path
         d="M34.0332 21.4355L111.23 21.4355C123.096 21.4355 129.199 15.2344 129.199 3.56445L129.199-73.8281C129.199-85.5469 123.096-91.6992 111.23-91.6992L34.0332-91.6992C22.168-91.6992 16.0645-85.6445 16.0645-73.8281L16.0645 3.56445C16.0645 15.3809 22.168 21.4355 34.0332 21.4355ZM58.6914-3.85742C57.4219-5.17578 57.4219-7.22656 58.7402-8.49609L86.4746-35.2539L58.7402-61.9629C57.373-63.1836 57.4219-65.332 58.7402-66.6016C60.0098-67.7734 61.9629-67.7734 63.3301-66.4551L91.4551-39.3555C93.9941-37.0117 93.9453-33.3496 91.4551-31.1035L63.3301-4.00391C62.0605-2.73438 59.8633-2.68555 58.6914-3.85742Z"
         id="path1759"
         style="fill:#03f7eb;fill-opacity:1" />
    </g>
    <g
       id="Thin-L"
       transform="matrix(1 0 0 1 784.889 1556)"
       style="fill:#03f7eb;fill-opacity:1">
      <path
         d="M32.666 20.3613L110.352 20.3613C121.24 20.3613 127.002 14.4531 127.002 3.75977L127.002-73.9746C127.002-84.7168 121.24-90.5762 110.352-90.5762L32.666-90.5762C21.7773-90.5762 16.0645-84.8633 16.0645-73.9746L16.0645 3.75977C16.0645 14.6484 21.7773 20.3613 32.666 20.3613ZM58.3008-4.49219C57.6172-5.27344 57.5195-6.49414 58.3984-7.27539L86.9629-35.2539L58.3984-63.2324C57.5195-64.0137 57.5195-65.332 58.3496-66.0645C59.1797-66.7969 60.2539-66.9434 61.1816-66.0156L90.1855-37.6465C91.7969-36.1328 91.6992-34.2773 90.1855-32.8613L61.1816-4.49219C60.3027-3.61328 59.082-3.66211 58.3008-4.49219Z"
         id="path1762"
         style="fill:#03f7eb;fill-opacity:1" />
    </g>
    <g
       id="Ultralight-L"
       transform="matrix(1 0 0 1 488.739 1556)"
       style="fill:#03f7eb;fill-opacity:1">
      <path
         d="M31.9824 19.7754L109.961 19.7754C120.312 19.7754 125.879 14.0625 125.879 3.85742L125.879-74.0723C125.879-84.2773 120.312-89.9902 109.961-89.9902L31.9824-89.9902C21.582-89.9902 16.0645-84.4727 16.0645-74.0723L16.0645 3.85742C16.0645 14.2578 21.582 19.7754 31.9824 19.7754ZM58.1055-4.78516C57.7148-5.27344 57.6172-6.15234 58.2031-6.68945L87.207-35.2539L58.2031-63.916C57.6172-64.4043 57.6172-65.332 58.1055-65.7715C58.7402-66.3086 59.4238-66.5039 60.1074-65.8203L89.502-36.7676C90.625-35.6934 90.5762-34.7656 89.502-33.7891L60.1074-4.73633C59.375-4.05273 58.6914-4.15039 58.1055-4.78516Z"
         id="path1765"
         style="fill:#03f7eb;fill-opacity:1" />
    </g>
    <g
       id="Black-M"
       transform="matrix(1 0 0 1 2872.19 1126)"
       style="fill:#03f7eb;fill-opacity:1">
      <path
         d="M31.9824 13.5742L90.4297 13.5742C102.686 13.5742 109.961 6.29883 109.961-5.95703L109.961-64.4043C109.961-76.6602 102.686-83.9355 90.4297-83.9355L31.9824-83.9355C19.7266-83.9355 12.4512-76.6602 12.4512-64.4043L12.4512-5.95703C12.4512 6.29883 19.7266 13.5742 31.9824 13.5742ZM50.6348-9.76562C47.8027-12.6465 48.0469-16.9434 50.6836-19.4336L67.627-35.2051L50.6836-50.8789C47.998-53.4668 47.998-58.0078 50.8301-60.5469C53.3203-62.8418 57.4219-63.0371 60.1074-60.4492L79.3457-42.5781C83.5449-38.623 83.5449-31.6895 79.3457-27.7344L60.1074-9.81445C57.666-7.56836 52.8809-7.56836 50.6348-9.76562Z"
         id="path1768"
         style="fill:#03f7eb;fill-opacity:1" />
    </g>
    <g
       id="Heavy-M"
       transform="matrix(1 0 0 1 2576.39 1126)"
       style="fill:#03f7eb;fill-opacity:1">
      <path
         d="M31.0059 12.6465L89.6484 12.6465C101.416 12.6465 108.154 5.9082 108.154-5.81055L108.154-64.5508C108.154-76.2695 101.416-83.0566 89.6484-83.0566L31.0059-83.0566C19.2383-83.0566 12.4512-76.3184 12.4512-64.5508L12.4512-5.81055C12.4512 5.9082 19.2383 12.6465 31.0059 12.6465ZM49.5117-9.91211C46.9727-12.4512 47.168-16.3086 49.5605-18.5547L67.3828-35.2051L49.5605-51.8066C47.1191-54.1016 47.1191-58.1543 49.6582-60.4492C51.9043-62.5 55.6152-62.6465 58.0078-60.3027L77.6855-42.041C81.543-38.3789 81.543-31.9824 77.6855-28.3203L58.0078-9.96094C55.8105-7.91016 51.5625-7.91016 49.5117-9.91211Z"
         id="path1771"
         style="fill:#03f7eb;fill-opacity:1" />
    </g>
    <g
       id="Bold-M"
       transform="matrix(1 0 0 1 2280.68 1126)"
       style="fill:#03f7eb;fill-opacity:1">
      <path
         d="M29.8828 11.6699L88.7207 11.6699C99.9512 11.6699 106.152 5.46875 106.152-5.66406L106.152-64.6973C106.152-75.8789 99.9512-82.0312 88.7207-82.0312L29.8828-82.0312C18.6523-82.0312 12.4512-75.8789 12.4512-64.6973L12.4512-5.66406C12.4512 5.51758 18.6523 11.6699 29.8828 11.6699ZM48.2422-10.0098C46.0449-12.2559 46.1914-15.625 48.291-17.5781L67.0898-35.2051L48.291-52.7832C46.1426-54.7852 46.1914-58.3008 48.3887-60.3027C50.3418-62.1582 53.5645-62.1582 55.7129-60.1562L75.7812-41.3574C79.2969-38.0859 79.2969-32.2754 75.7812-28.9551L55.7129-10.1562C53.7598-8.34961 50.0488-8.30078 48.2422-10.0098Z"
         id="path1774"
         style="fill:#03f7eb;fill-opacity:1" />
    </g>
    <g
       id="Semibold-M"
       transform="matrix(1 0 0 1 1984.65 1126)"
       style="fill:#03f7eb;fill-opacity:1">
      <path
         d="M29.1016 10.9863L88.0859 10.9863C98.9746 10.9863 104.785 5.17578 104.785-5.56641L104.785-64.8438C104.785-75.5859 98.9746-81.3477 88.0859-81.3477L29.1016-81.3477C18.2617-81.3477 12.4512-75.5859 12.4512-64.8438L12.4512-5.56641C12.4512 5.22461 18.2617 10.9863 29.1016 10.9863ZM47.4121-10.1074C45.4102-12.1094 45.5078-15.1367 47.3633-16.8945L66.8945-35.2051L47.3633-53.4668C45.459-55.2734 45.5078-58.3984 47.4609-60.2539C49.2676-61.9141 52.1484-61.8652 54.1016-60.0586L74.5117-40.918C77.7832-37.8906 77.7832-32.4707 74.5117-29.4434L54.1016-10.2539C52.3438-8.64258 49.0234-8.59375 47.4121-10.1074Z"
         id="path1777"
         style="fill:#03f7eb;fill-opacity:1" />
    </g>
    <g
       id="Medium-M"
       transform="matrix(1 0 0 1 1688.47 1126)"
       style="fill:#03f7eb;fill-opacity:1">
      <path
         d="M28.5156 10.4492L87.6465 10.4492C98.2422 10.4492 103.711 4.98047 103.711-5.46875L103.711-64.8926C103.711-75.3418 98.2422-80.8105 87.6465-80.8105L28.5156-80.8105C17.9688-80.8105 12.4512-75.3906 12.4512-64.8926L12.4512-5.46875C12.4512 4.98047 17.9688 10.4492 28.5156 10.4492ZM46.7285-10.2051C44.9707-12.0117 45.0195-14.7461 46.7285-16.4062L66.748-35.2051L46.7285-54.0039C44.9707-55.6152 45.0195-58.4473 46.8262-60.1562C48.4375-61.7188 51.0742-61.6211 52.832-60.0098L73.4863-40.625C76.6113-37.6953 76.6113-32.6172 73.4863-29.7363L52.832-10.3516C51.2695-8.83789 48.2422-8.78906 46.7285-10.2051Z"
         id="path1780"
         style="fill:#03f7eb;fill-opacity:1" />
    </g>
    <g
       id="Regular-M"
       transform="matrix(1 0 0 1 1392.45 1126)"
       style="fill:#03f7eb;fill-opacity:1">
      <path
         d="M27.7832 9.76562L87.0117 9.76562C97.2656 9.76562 102.344 4.6875 102.344-5.37109L102.344-64.9902C102.344-75.0488 97.2656-80.127 87.0117-80.127L27.7832-80.127C17.5781-80.127 12.4512-75.0977 12.4512-64.9902L12.4512-5.37109C12.4512 4.73633 17.5781 9.76562 27.7832 9.76562ZM45.8984-10.3027C44.3359-11.8652 44.3359-14.3066 45.8496-15.7227L66.5527-35.2051L45.8496-54.6387C44.2871-56.1035 44.3359-58.5938 45.9473-60.0586C47.3633-61.4746 49.707-61.3281 51.2695-59.8633L72.2168-40.1855C75.0977-37.5 75.0977-32.8613 72.2168-30.2246L51.2695-10.498C49.8535-9.13086 47.2168-9.0332 45.8984-10.3027Z"
         id="path1783"
         style="fill:#03f7eb;fill-opacity:1" />
    </g>
    <g
       id="Light-M"
       transform="matrix(1 0 0 1 1096.47 1126)"
       style="fill:#03f7eb;fill-opacity:1">
      <path
         d="M26.8555 9.0332L86.4746 9.0332C95.9961 9.0332 100.879 4.15039 100.879-5.22461L100.879-65.0879C100.879-74.5117 95.9961-79.3945 86.4746-79.3945L26.8555-79.3945C17.334-79.3945 12.4512-74.5605 12.4512-65.0879L12.4512-5.22461C12.4512 4.19922 17.334 9.0332 26.8555 9.0332ZM45.6055-10.6934C44.4336-11.9141 44.4336-13.7695 45.6055-14.8926L66.8457-35.2051L45.6055-55.5176C44.3848-56.6406 44.4336-58.5938 45.6543-59.7168C46.7773-60.791 48.584-60.7422 49.8047-59.5703L71.3379-39.0137C73.584-36.9141 73.5352-33.4961 71.3379-31.3965L49.8047-10.8398C48.6816-9.7168 46.6309-9.7168 45.6055-10.6934Z"
         id="path1786"
         style="fill:#03f7eb;fill-opacity:1" />
    </g>
    <g
       id="Thin-M"
       transform="matrix(1 0 0 1 800.758 1126)"
       style="fill:#03f7eb;fill-opacity:1">
      <path
         d="M25.6348 8.05664L85.7422 8.05664C94.3848 8.05664 98.877 3.4668 98.877-5.0293L98.877-65.2344C98.877-73.7305 94.3848-78.3691 85.7422-78.3691L25.6348-78.3691C16.9922-78.3691 12.4512-73.877 12.4512-65.2344L12.4512-5.0293C12.4512 3.56445 16.9922 8.05664 25.6348 8.05664ZM45.2637-11.2793C44.5801-11.9629 44.5312-13.1348 45.3125-13.8184L67.2852-35.2539L45.3125-56.6406C44.5312-57.373 44.5312-58.5938 45.2637-59.2285C45.9961-59.9121 47.0215-60.0098 47.8516-59.1797L70.1172-37.5C71.582-36.1328 71.5332-34.3262 70.1172-33.0078L47.8516-11.2793C47.0703-10.498 45.9473-10.5469 45.2637-11.2793Z"
         id="path1789"
         style="fill:#03f7eb;fill-opacity:1" />
    </g>
    <g
       id="Ultralight-M"
       transform="matrix(1 0 0 1 504.535 1126)"
       style="fill:#03f7eb;fill-opacity:1">
      <path
         d="M25 7.56836L85.3516 7.56836C93.5059 7.56836 97.9004 3.125 97.9004-4.98047L97.9004-65.2832C97.9004-73.3887 93.5059-77.832 85.3516-77.832L25-77.832C16.7969-77.832 12.4512-73.4863 12.4512-65.2832L12.4512-4.98047C12.4512 3.22266 16.7969 7.56836 25 7.56836ZM45.0684-11.5234C44.6777-12.0117 44.5801-12.793 45.1172-13.2812L67.4805-35.2539L45.1172-57.2266C44.5801-57.7148 44.5801-58.5938 45.0684-58.9844C45.6055-59.4727 46.2891-59.6191 46.875-58.9844L69.5312-36.6699C70.5566-35.7422 70.5078-34.7168 69.5312-33.8379L46.875-11.5234C46.2891-10.9375 45.5566-10.9863 45.0684-11.5234Z"
         id="path1792"
         style="fill:#03f7eb;fill-opacity:1" />
    </g>
    <g
       id="Black-S"
       transform="matrix(1 0 0 1 2885.5 696)"
       style="fill:#03f7eb;fill-opacity:1">
      <path
         d="M25 2.92969L70.8008 2.92969C80.3711 2.92969 86.0352-2.73438 86.0352-12.3047L86.0352-58.1055C86.0352-67.6758 80.3711-73.3398 70.8008-73.3398L25-73.3398C15.4297-73.3398 9.76562-67.6758 9.76562-58.1055L9.76562-12.3047C9.76562-2.73438 15.4297 2.92969 25 2.92969ZM39.5996-15.2832C37.4023-17.5293 37.5977-20.8496 39.6484-22.8027L52.9785-35.2051L39.6484-47.5586C37.5488-49.5605 37.5488-53.0762 39.7461-55.0781C41.6992-56.8359 44.873-56.9824 46.9727-54.9805L62.0605-40.9668C65.332-37.8906 65.332-32.4707 62.0605-29.3945L46.9727-15.332C45.0684-13.5742 41.3574-13.5742 39.5996-15.2832Z"
         id="path1795"
         style="fill:#03f7eb;fill-opacity:1" />
    </g>
    <g
       id="Heavy-S"
       transform="matrix(1 0 0 1 2589.4 696)"
       style="fill:#03f7eb;fill-opacity:1">
      <path
         d="M24.3652 2.34375L70.2637 2.34375C79.541 2.34375 84.8145-2.97852 84.8145-12.207L84.8145-58.2031C84.8145-67.4316 79.541-72.7539 70.2637-72.7539L24.3652-72.7539C15.0879-72.7539 9.76562-67.4316 9.76562-58.2031L9.76562-12.207C9.76562-2.97852 15.0879 2.34375 24.3652 2.34375ZM38.7695-15.332C36.7676-17.3828 36.9141-20.4102 38.8184-22.2168L52.7344-35.2051L38.8184-48.1445C36.8652-49.9512 36.9141-53.1738 38.916-55.0293C40.6738-56.6406 43.6035-56.7383 45.5566-54.9316L60.8887-40.6738C63.9648-37.7441 63.9648-32.6172 60.8887-29.6875L45.5566-15.4297C43.7988-13.7695 40.3809-13.7695 38.7695-15.332Z"
         id="path1798"
         style="fill:#03f7eb;fill-opacity:1" />
    </g>
    <g
       id="Bold-S"
       transform="matrix(1 0 0 1 2293.35 696)"
       style="fill:#03f7eb;fill-opacity:1">
      <path
         d="M23.6328 1.66016L69.6289 1.66016C78.6133 1.66016 83.4961-3.22266 83.4961-12.1094L83.4961-58.3008C83.4961-67.1875 78.6133-72.0703 69.6289-72.0703L23.6328-72.0703C14.6973-72.0703 9.76562-67.1875 9.76562-58.3008L9.76562-12.1094C9.76562-3.22266 14.6973 1.66016 23.6328 1.66016ZM37.8418-15.3809C36.0352-17.2363 36.1816-19.9707 37.8418-21.582L52.4902-35.2051L37.8418-48.7793C36.1328-50.4395 36.1328-53.3203 37.9395-54.9805C39.5508-56.4453 42.1875-56.4941 43.9453-54.834L59.5703-40.332C62.4512-37.5977 62.4512-32.7637 59.5703-30.0293L43.9453-15.5273C42.3828-14.0137 39.3066-14.0137 37.8418-15.3809Z"
         id="path1801"
         style="fill:#03f7eb;fill-opacity:1" />
    </g>
    <g
       id="Semibold-S"
       transform="matrix(1 0 0 1 1997.1 696)"
       style="fill:#03f7eb;fill-opacity:1">
      <path
         d="M23.0957 1.17188L69.1895 1.17188C77.9297 1.17188 82.5684-3.36914 82.5684-12.0117L82.5684-58.3984C82.5684-67.041 77.9297-71.582 69.1895-71.582L23.0957-71.582C14.4043-71.582 9.76562-67.041 9.76562-58.3984L9.76562-12.0117C9.76562-3.36914 14.4043 1.17188 23.0957 1.17188ZM37.207-15.4297C35.5469-17.0898 35.6445-19.6289 37.207-21.1426L52.3438-35.2051L37.207-49.2676C35.5957-50.7324 35.6445-53.3691 37.3047-54.9316C38.7695-56.3477 41.2109-56.2988 42.8223-54.7852L58.6426-40.0879C61.4258-37.5 61.4258-32.8613 58.6426-30.2734L42.8223-15.5762C41.4062-14.209 38.5742-14.1602 37.207-15.4297Z"
         id="path1804"
         style="fill:#03f7eb;fill-opacity:1" />
    </g>
    <g
       id="Medium-S"
       transform="matrix(1 0 0 1 1700.75 696)"
       style="fill:#03f7eb;fill-opacity:1">
      <path
         d="M22.7051 0.830078L68.8965 0.830078C77.4414 0.830078 81.8359-3.51562 81.8359-11.9629L81.8359-58.4473C81.8359-66.8945 77.4414-71.2402 68.8965-71.2402L22.7051-71.2402C14.209-71.2402 9.76562-66.8945 9.76562-58.4473L9.76562-11.9629C9.76562-3.51562 14.209 0.830078 22.7051 0.830078ZM36.7188-15.4785C35.2051-16.9922 35.2539-19.3848 36.7188-20.8008L52.1973-35.2051L36.7188-49.6094C35.2051-50.9766 35.2539-53.418 36.8164-54.9316C38.1836-56.25 40.4785-56.1523 41.9922-54.7363L57.959-39.8926C60.6445-37.4023 60.6445-32.959 57.959-30.4688L41.9922-15.625C40.625-14.3066 38.0371-14.2578 36.7188-15.4785Z"
         id="path1807"
         style="fill:#03f7eb;fill-opacity:1" />
    </g>
    <g
       id="Regular-S"
       transform="matrix(1 0 0 1 1404.51 696)"
       style="fill:#03f7eb;fill-opacity:1">
      <path
         d="M22.2168 0.390625L68.457 0.390625C76.8066 0.390625 80.9082-3.71094 80.9082-11.9141L80.9082-58.4961C80.9082-66.6992 76.8066-70.8008 68.457-70.8008L22.2168-70.8008C13.916-70.8008 9.76562-66.6992 9.76562-58.4961L9.76562-11.9141C9.76562-3.71094 13.916 0.390625 22.2168 0.390625ZM36.084-15.4785C34.7168-16.8945 34.7168-19.043 36.0352-20.3125L52.002-35.2051L36.0352-50.0488C34.7168-51.3184 34.7168-53.5156 36.1328-54.8828C37.4023-56.1035 39.5508-55.957 40.918-54.6875L57.0312-39.6484C59.5703-37.3047 59.5703-33.0566 57.0312-30.7129L40.918-15.6738C39.6484-14.502 37.2559-14.4043 36.084-15.4785Z"
         id="path1810"
         style="fill:#03f7eb;fill-opacity:1" />
    </g>
    <g
       id="Light-S"
       transform="translate(1108.46,696)"
       style="fill:#03f7eb;fill-opacity:1">
      <path
         d="m 21.3867,-0.292969 h 46.5821 c 7.7636,0 11.621,-3.857421 11.621,-11.474631 v -46.8262 c 0,-7.6171 -3.8574,-11.5234 -11.621,-11.5234 H 21.3867 c -7.7148,0 -11.62108,3.8574 -11.62108,11.5234 v 46.8262 c 0,7.61721 3.90628,11.474631 11.62108,11.474631 z M 35.8398,-15.8691 c -1.0253,-1.0743 -1.0253,-2.7344 0,-3.7598 L 52.2949,-35.2051 35.8398,-50.7812 c -1.0742,-1.0254 -1.0253,-2.7344 0.0489,-3.7598 1.0254,-0.9766 2.6367,-0.9278 3.7109,0.0976 L 56.25,-38.623 c 2.002,1.8554 2.002,5.0292 0,6.8359 l -16.6504,15.8203 c -0.9766,0.9277 -2.832,0.9766 -3.7598,0.0977 z"
         id="path1813"
         style="fill:#03f7eb;fill-opacity:1" />
    </g>
    <g
       id="Thin-S"
       transform="matrix(1 0 0 1 812.599 696)"
       style="fill:#03f7eb;fill-opacity:1">
      <path
         d="M20.3125-1.12305L67.334-1.12305C74.2676-1.12305 77.8809-4.78516 77.8809-11.6211L77.8809-58.6914C77.8809-65.5762 74.2676-69.2383 67.334-69.2383L20.3125-69.2383C13.3789-69.2383 9.76562-65.625 9.76562-58.6914L9.76562-11.6211C9.76562-4.6875 13.3789-1.12305 20.3125-1.12305ZM35.5469-16.3574C34.9121-16.9922 34.9121-18.0664 35.5469-18.6523L52.6367-35.2539L35.5469-51.8066C34.8633-52.4414 34.9121-53.5156 35.5469-54.1504C36.2305-54.7363 37.1582-54.7852 37.8906-54.1016L55.1758-37.3047C56.4941-36.084 56.4453-34.3262 55.1758-33.2031L37.8906-16.4062C37.207-15.7227 36.1328-15.7227 35.5469-16.3574Z"
         id="path1816"
         style="fill:#03f7eb;fill-opacity:1" />
    </g>
    <g
       id="Ultralight-S"
       transform="matrix(1 0 0 1 516.352 696)"
       style="fill:#03f7eb;fill-opacity:1">
      <path
         d="M19.7754-1.5625L66.9922-1.5625C73.5352-1.5625 76.9531-5.12695 76.9531-11.5234L76.9531-58.7891C76.9531-65.2344 73.5352-68.75 66.9922-68.75L19.7754-68.75C13.2324-68.75 9.76562-65.2832 9.76562-58.7891L9.76562-11.5234C9.76562-5.0293 13.2324-1.5625 19.7754-1.5625ZM35.4004-16.6016C35.0098-17.041 34.9609-17.7246 35.4492-18.1641L52.832-35.2539L35.4492-52.3438C34.9609-52.7344 34.9609-53.5156 35.4004-53.9062C35.8887-54.3457 36.4746-54.4434 37.0117-53.9062L54.6387-36.5723C55.5664-35.7422 55.5176-34.7168 54.6387-33.9355L37.0117-16.6016C36.4746-16.0645 35.791-16.1133 35.4004-16.6016Z"
         id="path1819"
         style="fill:#03f7eb;fill-opacity:1" />
    </g>
  </g>
</svg>
