<?xml version="1.0" encoding="UTF-8" standalone="no"?>
<svg
   xmlns:dc="http://purl.org/dc/elements/1.1/"
   xmlns:cc="http://creativecommons.org/ns#"
   xmlns:rdf="http://www.w3.org/1999/02/22-rdf-syntax-ns#"
   xmlns:svg="http://www.w3.org/2000/svg"
   xmlns="http://www.w3.org/2000/svg"
   xmlns:sodipodi="http://sodipodi.sourceforge.net/DTD/sodipodi-0.dtd"
   xmlns:inkscape="http://www.inkscape.org/namespaces/inkscape"
   version="1.1"
   width="3300"
   height="2200"
   id="svg1021"
   sodipodi:docname="playNext.svg"
   inkscape:version="1.0.1 (c497b03c, 2020-09-10)">
  <metadata
     id="metadata1027">
    <rdf:RDF>
      <cc:Work
         rdf:about="">
        <dc:format>image/svg+xml</dc:format>
        <dc:type
           rdf:resource="http://purl.org/dc/dcmitype/StillImage" />
        <dc:title></dc:title>
      </cc:Work>
    </rdf:RDF>
  </metadata>
  <defs
     id="defs1025" />
  <sodipodi:namedview
     pagecolor="#ffffff"
     bordercolor="#666666"
     borderopacity="1"
     objecttolerance="10"
     gridtolerance="10"
     guidetolerance="10"
     inkscape:pageopacity="0"
     inkscape:pageshadow="2"
     inkscape:window-width="1440"
     inkscape:window-height="791"
     id="namedview1023"
     showgrid="false"
     inkscape:zoom="0.21575758"
     inkscape:cx="1650"
     inkscape:cy="1100"
     inkscape:window-x="0"
     inkscape:window-y="23"
     inkscape:window-maximized="0"
     inkscape:current-layer="svg1021"
     inkscape:document-rotation="0" />
  <!--glyph: "uni10029A.medium", point size: 100.000000, font version: "Version 16.0d18e1", template writer version: "8"-->
  <g
     id="Notes">
    <rect
       height="2200"
       id="artboard"
       style="fill:white;opacity:1"
       width="3300"
       x="0"
       y="0" />
    <line
       id=""
       style="fill:none;stroke:black;opacity:1;stroke-width:0.5;"
       x1="263"
       x2="3036"
       y1="292"
       y2="292" />
    <text
       style="stroke:none;fill:black;font-family:-apple-system,&quot;SF Pro Display&quot;,&quot;SF Pro Text&quot;,Helvetica,sans-serif;font-weight:bold;"
       transform="matrix(1 0 0 1 263 322)"
       id="text835">Weight/Scale Variations</text>
    <text
       style="stroke:none;fill:black;font-family:-apple-system,&quot;SF Pro Display&quot;,&quot;SF Pro Text&quot;,Helvetica,sans-serif;text-anchor:middle;"
       transform="matrix(1 0 0 1 559.711 322)"
       id="text837">Ultralight</text>
    <text
       style="stroke:none;fill:black;font-family:-apple-system,&quot;SF Pro Display&quot;,&quot;SF Pro Text&quot;,Helvetica,sans-serif;text-anchor:middle;"
       transform="matrix(1 0 0 1 856.422 322)"
       id="text839">Thin</text>
    <text
       style="stroke:none;fill:black;font-family:-apple-system,&quot;SF Pro Display&quot;,&quot;SF Pro Text&quot;,Helvetica,sans-serif;text-anchor:middle;"
       transform="matrix(1 0 0 1 1153.13 322)"
       id="text841">Light</text>
    <text
       style="stroke:none;fill:black;font-family:-apple-system,&quot;SF Pro Display&quot;,&quot;SF Pro Text&quot;,Helvetica,sans-serif;text-anchor:middle;"
       transform="matrix(1 0 0 1 1449.84 322)"
       id="text843">Regular</text>
    <text
       style="stroke:none;fill:black;font-family:-apple-system,&quot;SF Pro Display&quot;,&quot;SF Pro Text&quot;,Helvetica,sans-serif;text-anchor:middle;"
       transform="matrix(1 0 0 1 1746.56 322)"
       id="text845">Medium</text>
    <text
       style="stroke:none;fill:black;font-family:-apple-system,&quot;SF Pro Display&quot;,&quot;SF Pro Text&quot;,Helvetica,sans-serif;text-anchor:middle;"
       transform="matrix(1 0 0 1 2043.27 322)"
       id="text847">Semibold</text>
    <text
       style="stroke:none;fill:black;font-family:-apple-system,&quot;SF Pro Display&quot;,&quot;SF Pro Text&quot;,Helvetica,sans-serif;text-anchor:middle;"
       transform="matrix(1 0 0 1 2339.98 322)"
       id="text849">Bold</text>
    <text
       style="stroke:none;fill:black;font-family:-apple-system,&quot;SF Pro Display&quot;,&quot;SF Pro Text&quot;,Helvetica,sans-serif;text-anchor:middle;"
       transform="matrix(1 0 0 1 2636.69 322)"
       id="text851">Heavy</text>
    <text
       style="stroke:none;fill:black;font-family:-apple-system,&quot;SF Pro Display&quot;,&quot;SF Pro Text&quot;,Helvetica,sans-serif;text-anchor:middle;"
       transform="matrix(1 0 0 1 2933.4 322)"
       id="text853">Black</text>
    <line
       id="line855"
       style="fill:none;stroke:black;opacity:1;stroke-width:0.5;"
       x1="263"
       x2="3036"
       y1="1903"
       y2="1903" />
    <g
       id="g859"
       transform="matrix(1 0 0 1 263 1933)">
      <path
         d="M9.24805 0.830078C13.5547 0.830078 17.1387-2.74414 17.1387-7.05078C17.1387-11.3574 13.5449-14.9316 9.23828-14.9316C4.94141-14.9316 1.36719-11.3574 1.36719-7.05078C1.36719-2.74414 4.95117 0.830078 9.24805 0.830078ZM9.24805-0.654297C5.70312-0.654297 2.87109-3.49609 2.87109-7.05078C2.87109-10.6055 5.69336-13.4473 9.23828-13.4473C12.793-13.4473 15.6348-10.6055 15.6445-7.05078C15.6543-3.49609 12.8027-0.654297 9.24805-0.654297ZM6.39648-6.31836L8.50586-6.31836L8.50586-4.19922C8.50586-3.75977 8.79883-3.45703 9.22852-3.45703C9.67773-3.45703 9.9707-3.75977 9.9707-4.19922L9.9707-6.31836L12.0996-6.31836C12.5391-6.31836 12.8418-6.61133 12.8418-7.04102C12.8418-7.48047 12.5391-7.7832 12.0996-7.7832L9.9707-7.7832L9.9707-9.89258C9.9707-10.3418 9.67773-10.6445 9.22852-10.6445C8.79883-10.6445 8.50586-10.3418 8.50586-9.89258L8.50586-7.7832L6.39648-7.7832C5.94727-7.7832 5.64453-7.48047 5.64453-7.04102C5.64453-6.61133 5.94727-6.31836 6.39648-6.31836Z"
         id="path857" />
    </g>
    <g
       id="g863"
       transform="matrix(1 0 0 1 281.506 1933)">
      <path
         d="M11.709 2.91016C17.1582 2.91016 21.6699-1.61133 21.6699-7.05078C21.6699-12.5 17.1484-17.0117 11.6992-17.0117C6.25977-17.0117 1.74805-12.5 1.74805-7.05078C1.74805-1.61133 6.26953 2.91016 11.709 2.91016ZM11.709 1.25C7.09961 1.25 3.41797-2.44141 3.41797-7.05078C3.41797-11.6602 7.08984-15.3516 11.6992-15.3516C16.3086-15.3516 20-11.6602 20.0098-7.05078C20.0195-2.44141 16.3184 1.25 11.709 1.25ZM7.98828-6.23047L10.8789-6.23047L10.8789-3.32031C10.8789-2.83203 11.2109-2.5 11.6895-2.5C12.1777-2.5 12.5195-2.83203 12.5195-3.32031L12.5195-6.23047L15.4297-6.23047C15.918-6.23047 16.25-6.5625 16.25-7.04102C16.25-7.5293 15.918-7.87109 15.4297-7.87109L12.5195-7.87109L12.5195-10.7617C12.5195-11.2695 12.1777-11.6016 11.6895-11.6016C11.2109-11.6016 10.8789-11.2598 10.8789-10.7617L10.8789-7.87109L7.98828-7.87109C7.48047-7.87109 7.14844-7.5293 7.14844-7.04102C7.14844-6.5625 7.49023-6.23047 7.98828-6.23047Z"
         id="path861" />
    </g>
    <g
       id="g867"
       transform="matrix(1 0 0 1 304.924 1933)">
      <path
         d="M14.9707 5.66406C21.9336 5.66406 27.6953-0.0976562 27.6953-7.05078C27.6953-14.0137 21.9238-19.7754 14.9609-19.7754C8.00781-19.7754 2.25586-14.0137 2.25586-7.05078C2.25586-0.0976562 8.01758 5.66406 14.9707 5.66406ZM14.9707 3.84766C8.93555 3.84766 4.08203-1.01562 4.08203-7.05078C4.08203-13.0957 8.92578-17.9492 14.9609-17.9492C21.0059-17.9492 25.8594-13.0957 25.8691-7.05078C25.8789-1.01562 21.0156 3.84766 14.9707 3.84766ZM10.0586-6.14258L14.0625-6.14258L14.0625-2.12891C14.0625-1.5918 14.4336-1.2207 14.9512-1.2207C15.4883-1.2207 15.8594-1.5918 15.8594-2.12891L15.8594-6.14258L19.8828-6.14258C20.4102-6.14258 20.791-6.51367 20.791-7.03125C20.791-7.56836 20.4199-7.94922 19.8828-7.94922L15.8594-7.94922L15.8594-11.9531C15.8594-12.5098 15.4883-12.8809 14.9512-12.8809C14.4336-12.8809 14.0625-12.5 14.0625-11.9531L14.0625-7.94922L10.0586-7.94922C9.50195-7.94922 9.13086-7.56836 9.13086-7.03125C9.13086-6.51367 9.51172-6.14258 10.0586-6.14258Z"
         id="path865" />
    </g>
    <text
       style="stroke:none;fill:black;font-family:-apple-system,&quot;SF Pro Display&quot;,&quot;SF Pro Text&quot;,Helvetica,sans-serif;font-weight:bold;"
       transform="matrix(1 0 0 1 263 1953)"
       id="text869">Design Variations</text>
    <text
       style="stroke:none;fill:black;font-family:-apple-system,&quot;SF Pro Display&quot;,&quot;SF Pro Text&quot;,Helvetica,sans-serif;"
       transform="matrix(1 0 0 1 263 1971)"
       id="text871">Symbols are supported in up to nine weights and three scales.</text>
    <text
       style="stroke:none;fill:black;font-family:-apple-system,&quot;SF Pro Display&quot;,&quot;SF Pro Text&quot;,Helvetica,sans-serif;"
       transform="matrix(1 0 0 1 263 1989)"
       id="text873">For optimal layout with text and other symbols, vertically align</text>
    <text
       style="stroke:none;fill:black;font-family:-apple-system,&quot;SF Pro Display&quot;,&quot;SF Pro Text&quot;,Helvetica,sans-serif;"
       transform="matrix(1 0 0 1 263 2007)"
       id="text875">symbols with the adjacent text.</text>
    <line
       id="line877"
       style="fill:none;stroke:#00AEEF;stroke-width:0.5;opacity:1.0;"
       x1="776"
       x2="776"
       y1="1919"
       y2="1933" />
    <g
       id="g881"
       transform="matrix(1 0 0 1 776 1933)">
      <path
         d="M3.31055 0.126953C3.82812 0.126953 4.08203-0.0683594 4.26758-0.605469L5.52734-4.0625L11.2891-4.0625L12.5488-0.605469C12.7344-0.0683594 12.9883 0.126953 13.4961 0.126953C14.0137 0.126953 14.3457-0.185547 14.3457-0.673828C14.3457-0.839844 14.3164-0.986328 14.2383-1.20117L9.6582-13.3887C9.43359-13.9941 9.0332-14.2871 8.4082-14.2871C7.80273-14.2871 7.39258-13.9941 7.17773-13.3984L2.59766-1.19141C2.51953-0.976562 2.49023-0.830078 2.49023-0.664062C2.49023-0.175781 2.80273 0.126953 3.31055 0.126953ZM6.00586-5.53711L8.37891-12.1094L8.42773-12.1094L10.8008-5.53711Z"
         id="path879" />
    </g>
    <line
       id="line883"
       style="fill:none;stroke:#00AEEF;stroke-width:0.5;opacity:1.0;"
       x1="792.836"
       x2="792.836"
       y1="1919"
       y2="1933" />
    <text
       style="stroke:none;fill:black;font-family:-apple-system,&quot;SF Pro Display&quot;,&quot;SF Pro Text&quot;,Helvetica,sans-serif;font-weight:bold;"
       transform="matrix(1 0 0 1 776 1953)"
       id="text885">Margins</text>
    <text
       style="stroke:none;fill:black;font-family:-apple-system,&quot;SF Pro Display&quot;,&quot;SF Pro Text&quot;,Helvetica,sans-serif;"
       transform="matrix(1 0 0 1 776 1971)"
       id="text887">Leading and trailing margins on the left and right side of each symbol</text>
    <text
       style="stroke:none;fill:black;font-family:-apple-system,&quot;SF Pro Display&quot;,&quot;SF Pro Text&quot;,Helvetica,sans-serif;"
       transform="matrix(1 0 0 1 776 1989)"
       id="text889">can be adjusted by modifying the x-location of the margin guidelines.</text>
    <text
       style="stroke:none;fill:black;font-family:-apple-system,&quot;SF Pro Display&quot;,&quot;SF Pro Text&quot;,Helvetica,sans-serif;"
       transform="matrix(1 0 0 1 776 2007)"
       id="text891">Modifications are automatically applied proportionally to all</text>
    <text
       style="stroke:none;fill:black;font-family:-apple-system,&quot;SF Pro Display&quot;,&quot;SF Pro Text&quot;,Helvetica,sans-serif;"
       transform="matrix(1 0 0 1 776 2025)"
       id="text893">scales and weights.</text>
    <g
       id="g897"
       transform="matrix(1 0 0 1 1289 1933)">
      <path
         d="M2.8418 1.86523L4.54102 3.57422C5.40039 4.44336 6.38672 4.38477 7.31445 3.35938L17.4902-7.85156C17.7539-7.76367 18.0273-7.7832 18.3398-7.8418L19.4043-8.03711L20.0684-7.36328L20.0293-6.80664C19.9902-6.30859 20.1172-5.92773 20.6055-5.44922L21.3672-4.70703C21.8457-4.22852 22.4609-4.19922 22.9297-4.66797L25.8398-7.58789C26.3086-8.05664 26.2891-8.65234 25.8105-9.13086L25.0391-9.89258C24.5605-10.3711 24.1895-10.5273 23.7109-10.4883L23.1348-10.4395L22.4902-11.0742L22.7344-12.1973C22.8613-12.7637 22.7051-13.2031 22.1191-13.7891L19.9219-15.9766C16.582-19.2969 12.1484-19.2188 9.25781-16.3281C8.83789-15.918 8.80859-15.3418 9.04297-14.9512C9.27734-14.5898 9.73633-14.3555 10.3809-14.5215C11.8457-14.8633 13.3691-14.9219 14.7949-13.9844L14.209-12.5293C14.0137-12.0508 13.9844-11.6504 14.1113-11.2891L3.04688-0.898438C2.06055 0.0195312 1.98242 0.996094 2.8418 1.86523ZM10.752-15.957C13.1836-17.7344 16.4746-17.4316 18.7012-15.2051L21.1328-12.793C21.3672-12.5586 21.4062-12.373 21.3379-12.0312L21.0156-10.5469L22.5195-9.0625L23.5059-9.12109C23.7598-9.13086 23.8379-9.11133 24.0332-8.91602L24.6094-8.33984L22.168-5.89844L21.5918-6.47461C21.3965-6.66992 21.3672-6.74805 21.377-7.01172L21.4453-7.98828L19.9512-9.47266L18.4277-9.21875C18.1055-9.15039 17.959-9.17969 17.7148-9.41406L15.7129-11.416C15.459-11.6504 15.4297-11.8164 15.5859-12.1875L16.4648-14.2773C14.9023-15.7324 12.8711-16.3574 10.8398-15.7617C10.6836-15.7227 10.625-15.8496 10.752-15.957ZM5.27344 2.30469L4.10156 1.14258C3.63281 0.683594 3.74023 0.341797 4.14062-0.0195312L14.9512-10.1953L16.416-8.71094L6.42578 2.27539C6.07422 2.67578 5.74219 2.77344 5.27344 2.30469Z"
         id="path895" />
    </g>
    <text
       style="stroke:none;fill:black;font-family:-apple-system,&quot;SF Pro Display&quot;,&quot;SF Pro Text&quot;,Helvetica,sans-serif;font-weight:bold;"
       transform="matrix(1 0 0 1 1289 1953)"
       id="text899">Exporting</text>
    <text
       style="stroke:none;fill:black;font-family:-apple-system,&quot;SF Pro Display&quot;,&quot;SF Pro Text&quot;,Helvetica,sans-serif;"
       transform="matrix(1 0 0 1 1289 1971)"
       id="text901">Symbols should be outlined when exporting to ensure the</text>
    <text
       style="stroke:none;fill:black;font-family:-apple-system,&quot;SF Pro Display&quot;,&quot;SF Pro Text&quot;,Helvetica,sans-serif;"
       transform="matrix(1 0 0 1 1289 1989)"
       id="text903">design is preserved when submitting to Xcode.</text>
    <text
       id="template-version"
       style="stroke:none;fill:black;font-family:-apple-system,&quot;SF Pro Display&quot;,&quot;SF Pro Text&quot;,Helvetica,sans-serif;text-anchor:end;"
       transform="matrix(1 0 0 1 3036 1933)">Template v.2.0</text>
    <text
       style="stroke:none;fill:black;font-family:-apple-system,&quot;SF Pro Display&quot;,&quot;SF Pro Text&quot;,Helvetica,sans-serif;text-anchor:end;"
       transform="matrix(1 0 0 1 3036 1951)"
       id="text906">Requires Xcode 12 or greater</text>
    <text
       style="stroke:none;fill:black;font-family:-apple-system,&quot;SF Pro Display&quot;,&quot;SF Pro Text&quot;,Helvetica,sans-serif;text-anchor:end;"
       transform="matrix(1 0 0 1 3036 1969)"
       id="text908">Generated from play.rectangle.fill</text>
    <text
       style="stroke:none;fill:black;font-family:-apple-system,&quot;SF Pro Display&quot;,&quot;SF Pro Text&quot;,Helvetica,sans-serif;text-anchor:end;"
       transform="matrix(1 0 0 1 3036 1987)"
       id="text910">Typeset at 100 points</text>
    <text
       style="stroke:none;fill:black;font-family:-apple-system,&quot;SF Pro Display&quot;,&quot;SF Pro Text&quot;,Helvetica,sans-serif;"
       transform="matrix(1 0 0 1 263 726)"
       id="text912">Small</text>
    <text
       style="stroke:none;fill:black;font-family:-apple-system,&quot;SF Pro Display&quot;,&quot;SF Pro Text&quot;,Helvetica,sans-serif;"
       transform="matrix(1 0 0 1 263 1156)"
       id="text914">Medium</text>
    <text
       style="stroke:none;fill:black;font-family:-apple-system,&quot;SF Pro Display&quot;,&quot;SF Pro Text&quot;,Helvetica,sans-serif;"
       transform="matrix(1 0 0 1 263 1586)"
       id="text916">Large</text>
  </g>
  <g
     id="Guides">
    <g
       id="H-reference"
       style="fill:#27AAE1;stroke:none;"
       transform="matrix(1 0 0 1 339 696)">
      <path
         d="M0.976562 0L3.66211 0L12.9883-24.4629L45.752-24.4629L55.127 0L57.7637 0L30.6152-70.459L28.125-70.459ZM29.3457-67.1387L29.4434-67.1387L44.873-26.709L13.8672-26.709Z"
         id="path919" />
    </g>
    <line
       id="Baseline-S"
       style="fill:none;stroke:#27AAE1;opacity:1;stroke-width:0.5;"
       x1="263"
       x2="3036"
       y1="696"
       y2="696" />
    <line
       id="Capline-S"
       style="fill:none;stroke:#27AAE1;opacity:1;stroke-width:0.5;"
       x1="263"
       x2="3036"
       y1="625.541"
       y2="625.541" />
    <g
       id="g926"
       style="fill:#27AAE1;stroke:none;"
       transform="matrix(1 0 0 1 339 1126)">
      <path
         d="M0.976562 0L3.66211 0L12.9883-24.4629L45.752-24.4629L55.127 0L57.7637 0L30.6152-70.459L28.125-70.459ZM29.3457-67.1387L29.4434-67.1387L44.873-26.709L13.8672-26.709Z"
         id="path924" />
    </g>
    <line
       id="Baseline-M"
       style="fill:none;stroke:#27AAE1;opacity:1;stroke-width:0.5;"
       x1="263"
       x2="3036"
       y1="1126"
       y2="1126" />
    <line
       id="Capline-M"
       style="fill:none;stroke:#27AAE1;opacity:1;stroke-width:0.5;"
       x1="263"
       x2="3036"
       y1="1055.54"
       y2="1055.54" />
    <g
       id="g932"
       style="fill:#27AAE1;stroke:none;"
       transform="matrix(1 0 0 1 339 1556)">
      <path
         d="M0.976562 0L3.66211 0L12.9883-24.4629L45.752-24.4629L55.127 0L57.7637 0L30.6152-70.459L28.125-70.459ZM29.3457-67.1387L29.4434-67.1387L44.873-26.709L13.8672-26.709Z"
         id="path930" />
    </g>
    <line
       id="Baseline-L"
       style="fill:none;stroke:#27AAE1;opacity:1;stroke-width:0.5;"
       x1="263"
       x2="3036"
       y1="1556"
       y2="1556" />
    <line
       id="Capline-L"
       style="fill:none;stroke:#27AAE1;opacity:1;stroke-width:0.5;"
       x1="263"
       x2="3036"
       y1="1485.54"
       y2="1485.54" />
    <line
       id="left-margin"
       style="fill:none;stroke:#00AEEF;stroke-width:0.5;opacity:1.0;"
       x1="1379.82"
       x2="1379.82"
       y1="1030.79"
       y2="1150.12" />
    <line
       id="right-margin"
       style="fill:none;stroke:#00AEEF;stroke-width:0.5;opacity:1.0;"
       x1="1519.86"
       x2="1519.86"
       y1="1030.79"
       y2="1150.12" />
  </g>
  <g
     id="Symbols"
     style="fill:#00ffff">
    <g
       id="Black-L"
       transform="matrix(1 0 0 1 2841.51 1556)"
       style="fill:#00ffff">
      <path
         d="M39.9902 26.5137L143.799 26.5137C159.082 26.5137 167.725 17.8711 167.725 2.68555L167.725-73.0957C167.725-88.2812 159.082-96.875 143.799-96.875L39.9902-96.875C24.7559-96.875 16.0645-88.2812 16.0645-73.0957L16.0645 2.68555C16.0645 17.8711 24.7559 26.5137 39.9902 26.5137ZM118.848-31.0547L78.8086-7.95898C75.4883-6.10352 71.4844-7.91016 71.4844-11.4746L71.4844-58.7402C71.4844-62.3047 75.5859-64.209 78.8086-62.3535L118.848-39.1113C121.777-37.3535 121.826-32.8125 118.848-31.0547Z"
         id="path939"
         style="fill:#d15d79;fill-opacity:1" />
    </g>
    <g
       id="Heavy-L"
       transform="matrix(1 0 0 1 2545.23 1556)"
       style="fill:#00ffff">
      <path
         d="M38.8184 25.4883L144.092 25.4883C158.74 25.4883 166.846 17.4316 166.846 2.88086L166.846-73.2422C166.846-87.793 158.74-95.8496 144.092-95.8496L38.8184-95.8496C24.2188-95.8496 16.0645-87.793 16.0645-73.2422L16.0645 2.88086C16.0645 17.4316 24.2188 25.4883 38.8184 25.4883ZM117.871-31.2012L78.6133-8.44727C75.4395-6.5918 71.582-8.30078 71.582-11.7188L71.582-58.4961C71.582-61.9141 75.5371-63.6719 78.6133-61.8652L117.871-38.9648C120.703-37.2559 120.801-32.9102 117.871-31.2012Z"
         id="path942"
         style="fill:#d15d79;fill-opacity:1"
         inkscape:export-filename="/Users/bansrirawal/Desktop/path942.png"
         inkscape:export-xdpi="95.052216"
         inkscape:export-ydpi="95.052216" />
    </g>
    <g
       id="Bold-L"
       transform="matrix(1 0 0 1 2249.01 1556)"
       style="fill:#00ffff">
      <path
         d="M37.5 24.3652L144.385 24.3652C158.35 24.3652 165.869 16.8945 165.869 3.07617L165.869-73.3887C165.869-87.207 158.35-94.7266 144.385-94.7266L37.5-94.7266C23.6328-94.7266 16.0645-87.2559 16.0645-73.3887L16.0645 3.07617C16.0645 16.8945 23.6328 24.3652 37.5 24.3652ZM116.846-31.3965L78.418-8.93555C75.3418-7.12891 71.7285-8.74023 71.7285-11.9629L71.7285-58.252C71.7285-61.4746 75.4883-63.0371 78.418-61.3281L116.846-38.7207C119.58-37.1094 119.629-33.0566 116.846-31.3965Z"
         id="path945"
         style="fill:#d15d79;fill-opacity:1" />
    </g>
    <g
       id="Semibold-L"
       transform="matrix(1 0 0 1 1952.64 1556)"
       style="fill:#00ffff">
      <path
         d="M36.6211 23.584L144.629 23.584C158.057 23.584 165.186 16.5039 165.186 3.17383L165.186-73.5352C165.186-86.8164 158.057-93.9453 144.629-93.9453L36.6211-93.9453C23.1934-93.9453 16.0645-86.8652 16.0645-73.5352L16.0645 3.17383C16.0645 16.5527 23.1934 23.584 36.6211 23.584ZM116.113-31.543L78.2715-9.27734C75.293-7.51953 71.8262-9.08203 71.8262-12.1582L71.8262-58.0566C71.8262-61.1816 75.4395-62.5977 78.2715-60.9863L116.113-38.623C118.75-37.0117 118.848-33.1543 116.113-31.543Z"
         id="path948"
         style="fill:#d15d79;fill-opacity:1" />
    </g>
    <g
       id="Medium-L"
       transform="matrix(1 0 0 1 1656.2 1556)"
       style="fill:#00ffff">
      <path
         d="M35.9375 22.998L144.775 22.998C157.861 22.998 164.648 16.2109 164.648 3.27148L164.648-73.6328C164.648-86.5234 157.861-93.3105 144.775-93.3105L35.9375-93.3105C22.9004-93.3105 16.0645-86.5723 16.0645-73.6328L16.0645 3.27148C16.0645 16.2598 22.9004 22.998 35.9375 22.998ZM115.576-31.6406L78.125-9.57031C75.2441-7.8125 71.875-9.27734 71.875-12.3047L71.875-57.9102C71.875-60.9375 75.4395-62.3047 78.125-60.6934L115.576-38.4766C118.164-36.9141 118.213-33.2031 115.576-31.6406Z"
         id="path951"
         style="fill:#d15d79;fill-opacity:1" />
    </g>
    <g
       id="Regular-L"
       transform="matrix(1 0 0 1 1359.81 1556)"
       style="fill:#00ffff">
      <path
         d="M35.0586 22.2168L144.971 22.2168C157.617 22.2168 164.014 15.8691 164.014 3.41797L164.014-73.7305C164.014-86.1816 157.617-92.5293 144.971-92.5293L35.0586-92.5293C22.4609-92.5293 16.0645-86.2305 16.0645-73.7305L16.0645 3.41797C16.0645 15.918 22.4609 22.2168 35.0586 22.2168ZM114.844-31.7383L78.0273-9.91211C75.1953-8.20312 71.9727-9.57031 71.9727-12.4512L71.9727-57.7148C71.9727-60.5957 75.3906-61.8652 78.0273-60.3027L114.844-38.3789C117.383-36.8164 117.432-33.3008 114.844-31.7383Z"
         id="path954"
         style="fill:#d15d79;fill-opacity:1" />
    </g>
    <g
       id="Light-L"
       transform="matrix(1 0 0 1 1063.56 1556)"
       style="fill:#00ffff">
      <path
         d="M34.0332 21.4355L145.117 21.4355C157.031 21.4355 163.086 15.2344 163.086 3.56445L163.086-73.8281C163.086-85.5469 157.031-91.6992 145.117-91.6992L34.0332-91.6992C22.168-91.6992 16.0645-85.6445 16.0645-73.8281L16.0645 3.56445C16.0645 15.3809 22.168 21.4355 34.0332 21.4355ZM114.062-31.9336L77.4414-10.0586C74.9512-8.54492 72.0215-9.81445 72.0215-12.4023L72.0215-57.7637C72.0215-60.3516 75.0977-61.5234 77.4414-60.1074L114.062-38.0371C116.406-36.6211 116.455-33.3984 114.062-31.9336Z"
         id="path957"
         style="fill:#d15d79;fill-opacity:1" />
    </g>
    <g
       id="Thin-L"
       transform="matrix(1 0 0 1 767.433 1556)"
       style="fill:#00ffff">
      <path
         d="M32.666 20.3613L145.312 20.3613C156.201 20.3613 161.914 14.4531 161.914 3.75977L161.914-73.9746C161.914-84.7168 156.201-90.5762 145.312-90.5762L32.666-90.5762C21.7773-90.5762 16.0645-84.8633 16.0645-73.9746L16.0645 3.75977C16.0645 14.6484 21.7773 20.3613 32.666 20.3613ZM112.988-32.2266L76.709-10.3027C74.6094-9.0332 72.0703-10.1074 72.0703-12.3047L72.0703-57.7637C72.0703-59.9609 74.6582-61.0352 76.709-59.8145L112.988-37.6465C115.137-36.3281 115.137-33.5449 112.988-32.2266Z"
         id="path960"
         style="fill:#d15d79;fill-opacity:1" />
    </g>
    <g
       id="Ultralight-L"
       transform="matrix(1 0 0 1 471.015 1556)"
       style="fill:#00ffff">
      <path
         d="M31.9824 19.7754L145.41 19.7754C155.811 19.7754 161.328 14.0625 161.328 3.85742L161.328-74.0723C161.328-84.2773 155.811-89.9902 145.41-89.9902L31.9824-89.9902C21.582-89.9902 16.0645-84.4727 16.0645-74.0723L16.0645 3.85742C16.0645 14.2578 21.582 19.7754 31.9824 19.7754ZM112.451-32.373L76.3672-10.4004C74.4629-9.22852 72.1191-10.2539 72.1191-12.2559L72.1191-57.8125C72.1191-59.7656 74.4141-60.791 76.3672-59.668L112.451-37.4023C114.502-36.1816 114.502-33.5938 112.451-32.373Z"
         id="path963"
         style="fill:#d15d79;fill-opacity:1" />
    </g>
    <g
       id="Black-M"
       transform="matrix(1 0 0 1 2861.84 1126)"
       style="fill:#00ffff">
      <path
         d="M31.9824 13.5742L111.133 13.5742C123.389 13.5742 130.664 6.29883 130.664-5.95703L130.664-64.4043C130.664-76.6602 123.389-83.9355 111.133-83.9355L31.9824-83.9355C19.7266-83.9355 12.4512-76.6602 12.4512-64.4043L12.4512-5.95703C12.4512 6.29883 19.7266 13.5742 31.9824 13.5742ZM92.9688-31.8848L61.0352-13.5742C58.4961-12.1582 55.2734-13.6719 55.2734-16.4551L55.2734-53.8086C55.2734-56.5918 58.4473-58.252 61.0352-56.7871L92.9688-38.3301C95.2637-36.9629 95.3125-33.252 92.9688-31.8848Z"
         id="path966"
         style="fill:#d15d79;fill-opacity:1" />
    </g>
    <g
       id="Heavy-M"
       transform="matrix(1 0 0 1 2565.5 1126)"
       style="fill:#00ffff">
      <path
         d="M31.0059 12.6465L111.426 12.6465C123.193 12.6465 129.932 5.9082 129.932-5.81055L129.932-64.5508C129.932-76.2695 123.193-83.0566 111.426-83.0566L31.0059-83.0566C19.2383-83.0566 12.4512-76.3184 12.4512-64.5508L12.4512-5.81055C12.4512 5.9082 19.2383 12.6465 31.0059 12.6465ZM92.1387-32.0312L60.9863-14.0625C58.4473-12.5977 55.3711-14.0137 55.3711-16.748L55.3711-53.5156C55.3711-56.25 58.4961-57.7148 60.9863-56.3477L92.1387-38.1836C94.3848-36.8652 94.4336-33.3496 92.1387-32.0312Z"
         id="path969"
         style="fill:#d15d79;fill-opacity:1" />
    </g>
    <g
       id="Bold-M"
       transform="matrix(1 0 0 1 2269.18 1126)"
       style="fill:#00ffff">
      <path
         d="M29.8828 11.6699L111.719 11.6699C122.949 11.6699 129.15 5.46875 129.15-5.66406L129.15-64.6973C129.15-75.8789 122.949-82.0312 111.719-82.0312L29.8828-82.0312C18.6523-82.0312 12.4512-75.8789 12.4512-64.6973L12.4512-5.66406C12.4512 5.51758 18.6523 11.6699 29.8828 11.6699ZM91.2109-32.1289L60.8887-14.5508C58.4473-13.1348 55.5176-14.4531 55.5176-17.041L55.5176-53.2227C55.5176-55.8594 58.5449-57.1777 60.8887-55.8105L91.2109-38.0859C93.3594-36.7676 93.457-33.4473 91.2109-32.1289Z"
         id="path972"
         style="fill:#d15d79;fill-opacity:1" />
    </g>
    <g
       id="Semibold-M"
       transform="matrix(1 0 0 1 1972.76 1126)"
       style="fill:#00ffff">
      <path
         d="M29.1016 10.9863L111.914 10.9863C122.803 10.9863 128.564 5.17578 128.564-5.56641L128.564-64.8438C128.564-75.5859 122.803-81.3477 111.914-81.3477L29.1016-81.3477C18.2617-81.3477 12.4512-75.5859 12.4512-64.8438L12.4512-5.56641C12.4512 5.22461 18.2617 10.9863 29.1016 10.9863ZM90.5762-32.2266L60.8398-14.8926C58.4473-13.4766 55.5664-14.7461 55.5664-17.2852L55.5664-53.0273C55.5664-55.5664 58.5938-56.7383 60.8398-55.4199L90.5762-37.9883C92.6758-36.7188 92.7734-33.5449 90.5762-32.2266Z"
         id="path975"
         style="fill:#d15d79;fill-opacity:1" />
    </g>
    <g
       id="Medium-M"
       transform="matrix(1 0 0 1 1676.24 1126)"
       style="fill:#00ffff">
      <path
         d="M28.5156 10.4492L112.061 10.4492C122.656 10.4492 128.174 4.98047 128.174-5.46875L128.174-64.8926C128.174-75.3418 122.656-80.8105 112.061-80.8105L28.5156-80.8105C17.9688-80.8105 12.4512-75.3906 12.4512-64.8926L12.4512-5.46875C12.4512 4.98047 17.9688 10.4492 28.5156 10.4492ZM90.0879-32.3242L60.791-15.1367C58.4473-13.7207 55.6641-14.9414 55.6641-17.4316L55.6641-52.8809C55.6641-55.3223 58.5938-56.4453 60.791-55.1758L90.0879-37.9395C92.1875-36.6699 92.2363-33.5938 90.0879-32.3242Z"
         id="path978"
         style="fill:#d15d79;fill-opacity:1" />
    </g>
    <g
       id="Regular-M"
       transform="matrix(1 0 0 1 1379.82 1126)"
       style="fill:#00ffff">
      <path
         d="M27.7832 9.76562L112.256 9.76562C122.51 9.76562 127.588 4.6875 127.588-5.37109L127.588-64.9902C127.588-75.0488 122.51-80.127 112.256-80.127L27.7832-80.127C17.5781-80.127 12.4512-75.0977 12.4512-64.9902L12.4512-5.37109C12.4512 4.73633 17.5781 9.76562 27.7832 9.76562ZM89.4531-32.4219L60.7422-15.4785C58.4473-14.0625 55.7129-15.2344 55.7129-17.627L55.7129-52.6855C55.7129-55.0781 58.6426-56.0547 60.7422-54.7852L89.4531-37.8418C91.5039-36.5723 91.5527-33.6426 89.4531-32.4219Z"
         id="path981"
         style="fill:#d15d79;fill-opacity:1"
         inkscape:export-filename="/Users/bansrirawal/Desktop/playFormsImage.png"
         inkscape:export-xdpi="95.052216"
         inkscape:export-ydpi="95.052216" />
    </g>
    <g
       id="Light-M"
       transform="matrix(1 0 0 1 1083.5 1126)"
       style="fill:#00ffff">
      <path
         d="M26.8555 9.0332L112.402 9.0332C121.973 9.0332 126.807 4.15039 126.807-5.22461L126.807-65.0879C126.807-74.5117 121.973-79.3945 112.402-79.3945L26.8555-79.3945C17.334-79.3945 12.4512-74.5605 12.4512-65.0879L12.4512-5.22461C12.4512 4.19922 17.334 9.0332 26.8555 9.0332ZM88.7207-32.6172L60.2539-15.6738C58.2031-14.4043 55.7617-15.4297 55.7617-17.5781L55.7617-52.6855C55.7617-54.834 58.3008-55.7617 60.2539-54.5898L88.7207-37.5488C90.625-36.377 90.6738-33.7402 88.7207-32.6172Z"
         id="path984"
         style="fill:#d15d79;fill-opacity:1" />
    </g>
    <g
       id="Thin-M"
       transform="matrix(1 0 0 1 787.33 1126)"
       style="fill:#00ffff">
      <path
         d="M25.6348 8.05664L112.598 8.05664C121.24 8.05664 125.732 3.4668 125.732-5.0293L125.732-65.2344C125.732-73.7305 121.24-78.3691 112.598-78.3691L25.6348-78.3691C16.9922-78.3691 12.4512-73.877 12.4512-65.2344L12.4512-5.0293C12.4512 3.56445 16.9922 8.05664 25.6348 8.05664ZM87.793-32.8613L59.6191-15.8691C57.9102-14.7949 55.8594-15.6738 55.8594-17.4805L55.8594-52.6855C55.8594-54.4922 57.9102-55.3223 59.6191-54.3457L87.793-37.1582C89.502-36.1328 89.502-33.8867 87.793-32.8613Z"
         id="path987"
         style="fill:#d15d79;fill-opacity:1" />
    </g>
    <g
       id="Ultralight-M"
       transform="matrix(1 0 0 1 490.888 1126)"
       style="fill:#00ffff">
      <path
         d="M25 7.56836L112.695 7.56836C120.85 7.56836 125.195 3.125 125.195-4.98047L125.195-65.2832C125.195-73.3887 120.85-77.832 112.695-77.832L25-77.832C16.7969-77.832 12.4512-73.4863 12.4512-65.2832L12.4512-4.98047C12.4512 3.22266 16.7969 7.56836 25 7.56836ZM87.3047-32.959L59.2773-15.9668C57.7148-15.0391 55.8594-15.8203 55.8594-17.4316L55.8594-52.7344C55.8594-54.2969 57.7148-55.127 59.2773-54.1992L87.3047-37.0117C88.916-35.9863 88.916-33.9355 87.3047-32.959Z"
         id="path990"
         style="fill:#d15d79;fill-opacity:1" />
    </g>
    <g
       id="Black-S"
       transform="matrix(1 0 0 1 2877.35 696)"
       style="fill:#00ffff">
      <path
         d="M25 2.92969L87.1094 2.92969C96.6797 2.92969 102.344-2.73438 102.344-12.3047L102.344-58.1055C102.344-67.6758 96.6797-73.3398 87.1094-73.3398L25-73.3398C15.4297-73.3398 9.76562-67.6758 9.76562-58.1055L9.76562-12.3047C9.76562-2.73438 15.4297 2.92969 25 2.92969ZM72.7539-32.6172L47.8027-18.3105C45.8008-17.1875 43.3105-18.3594 43.3105-20.5566L43.3105-49.7559C43.3105-51.9531 45.8008-53.2227 47.8027-52.0996L72.7539-37.6465C74.5605-36.5723 74.6094-33.6914 72.7539-32.6172Z"
         id="path993"
         style="fill:#d15d79;fill-opacity:1" />
    </g>
    <g
       id="Heavy-S"
       transform="matrix(1 0 0 1 2580.88 696)"
       style="fill:#00ffff">
      <path
         d="M24.3652 2.34375L87.3047 2.34375C96.582 2.34375 101.855-2.97852 101.855-12.207L101.855-58.2031C101.855-67.4316 96.582-72.7539 87.3047-72.7539L24.3652-72.7539C15.0879-72.7539 9.76562-67.4316 9.76562-58.2031L9.76562-12.207C9.76562-2.97852 15.0879 2.34375 24.3652 2.34375ZM72.2168-32.7148L47.8027-18.6523C45.8008-17.4805 43.3594-18.6035 43.3594-20.752L43.3594-49.5605C43.3594-51.709 45.8496-52.8809 47.8027-51.7578L72.2168-37.5977C73.9746-36.5234 74.0234-33.7402 72.2168-32.7148Z"
         id="path996"
         style="fill:#d15d79;fill-opacity:1" />
    </g>
    <g
       id="Bold-S"
       transform="matrix(1 0 0 1 2284.41 696)"
       style="fill:#00ffff">
      <path
         d="M23.6328 1.66016L87.5 1.66016C96.4844 1.66016 101.367-3.22266 101.367-12.1094L101.367-58.3008C101.367-67.1875 96.4844-72.0703 87.5-72.0703L23.6328-72.0703C14.6973-72.0703 9.76562-67.1875 9.76562-58.3008L9.76562-12.1094C9.76562-3.22266 14.6973 1.66016 23.6328 1.66016ZM71.582-32.7637L47.8027-18.9941C45.8496-17.8711 43.457-18.8965 43.457-20.9961L43.457-49.3164C43.457-51.416 45.9473-52.4902 47.8027-51.3672L71.582-37.5488C73.3398-36.4746 73.3887-33.8379 71.582-32.7637Z"
         id="path999"
         style="fill:#d15d79;fill-opacity:1" />
    </g>
    <g
       id="Semibold-S"
       transform="matrix(1 0 0 1 1987.9 696)"
       style="fill:#00ffff">
      <path
         d="M23.0957 1.17188L87.6465 1.17188C96.3867 1.17188 100.977-3.36914 100.977-12.0117L100.977-58.3984C100.977-67.041 96.3867-71.582 87.6465-71.582L23.0957-71.582C14.4043-71.582 9.76562-67.041 9.76562-58.3984L9.76562-12.0117C9.76562-3.36914 14.4043 1.17188 23.0957 1.17188ZM71.1426-32.8125L47.8027-19.2383C45.8496-18.0664 43.5059-19.0918 43.5059-21.1914L43.5059-49.1699C43.5059-51.2207 45.9473-52.1973 47.8027-51.123L71.1426-37.5C72.8516-36.4746 72.9004-33.8867 71.1426-32.8125Z"
         id="path1002"
         style="fill:#d15d79;fill-opacity:1" />
    </g>
    <g
       id="Medium-S"
       transform="matrix(1 0 0 1 1691.31 696)"
       style="fill:#00ffff">
      <path
         d="M22.7051 0.830078L87.7441 0.830078C96.3379 0.830078 100.732-3.51562 100.732-11.9629L100.732-58.4473C100.732-66.8945 96.3379-71.2402 87.7441-71.2402L22.7051-71.2402C14.209-71.2402 9.76562-66.8945 9.76562-58.4473L9.76562-11.9629C9.76562-3.51562 14.209 0.830078 22.7051 0.830078ZM70.8008-32.8613L47.8027-19.4336C45.8496-18.2617 43.5547-19.2871 43.5547-21.2891L43.5547-49.0234C43.5547-51.0742 45.9961-52.002 47.8027-50.9277L70.8008-37.4512C72.5098-36.4258 72.5586-33.8867 70.8008-32.8613Z"
         id="path1005"
         style="fill:#d15d79;fill-opacity:1" />
    </g>
    <g
       id="Regular-S"
       transform="matrix(1 0 0 1 1394.79 696)"
       style="fill:#00ffff">
      <path
         d="M22.2168 0.390625L87.8906 0.390625C96.2402 0.390625 100.342-3.71094 100.342-11.9141L100.342-58.4961C100.342-66.6992 96.2402-70.8008 87.8906-70.8008L22.2168-70.8008C13.916-70.8008 9.76562-66.6992 9.76562-58.4961L9.76562-11.9141C9.76562-3.71094 13.916 0.390625 22.2168 0.390625ZM70.4102-32.959L47.8027-19.6777C45.8496-18.5059 43.6035-19.4824 43.6035-21.4844L43.6035-48.877C43.6035-50.8789 46.0449-51.709 47.8027-50.6348L70.4102-37.4023C72.0703-36.377 72.1191-33.9355 70.4102-32.959Z"
         id="path1008"
         style="fill:#d15d79;fill-opacity:1" />
    </g>
    <g
       id="Light-S"
       transform="matrix(1 0 0 1 1098.42 696)"
       style="fill:#00ffff">
      <path
         d="M21.3867-0.292969L88.0371-0.292969C95.752-0.292969 99.6582-4.15039 99.6582-11.7676L99.6582-58.5938C99.6582-66.2109 95.752-70.1172 88.0371-70.1172L21.3867-70.1172C13.6719-70.1172 9.76562-66.2598 9.76562-58.5938L9.76562-11.7676C9.76562-4.15039 13.6719-0.292969 21.3867-0.292969ZM69.7754-33.1055L47.4121-19.8242C45.6543-18.7988 43.6523-19.6289 43.6523-21.4355L43.6523-48.877C43.6523-50.6836 45.8008-51.416 47.4121-50.4883L69.7754-37.1582C71.3379-36.2305 71.3867-34.0332 69.7754-33.1055Z"
         id="path1011"
         style="fill:#d15d79;fill-opacity:1" />
    </g>
    <g
       id="Thin-S"
       transform="matrix(1 0 0 1 802.174 696)"
       style="fill:#00ffff">
      <path
         d="M20.3125-1.12305L88.1836-1.12305C95.1172-1.12305 98.7305-4.78516 98.7305-11.6211L98.7305-58.6914C98.7305-65.5762 95.1172-69.2383 88.1836-69.2383L20.3125-69.2383C13.3789-69.2383 9.76562-65.625 9.76562-58.6914L9.76562-11.6211C9.76562-4.6875 13.3789-1.12305 20.3125-1.12305ZM68.9941-33.3008L46.8262-20.0195C45.4102-19.1406 43.75-19.873 43.75-21.3379L43.75-48.9258C43.75-50.3906 45.459-51.0742 46.8262-50.2441L68.9941-36.8164C70.3613-35.9863 70.3613-34.1309 68.9941-33.3008Z"
         id="path1014"
         style="fill:#d15d79;fill-opacity:1" />
    </g>
    <g
       id="Ultralight-S"
       transform="matrix(1 0 0 1 505.707 696)"
       style="fill:#00ffff">
      <path
         d="M19.7754-1.5625L88.2812-1.5625C94.8242-1.5625 98.2422-5.12695 98.2422-11.5234L98.2422-58.7891C98.2422-65.2344 94.8242-68.75 88.2812-68.75L19.7754-68.75C13.2324-68.75 9.76562-65.2832 9.76562-58.7891L9.76562-11.5234C9.76562-5.0293 13.2324-1.5625 19.7754-1.5625ZM68.5547-33.3984L46.5332-20.1172C45.3125-19.3359 43.7988-19.9707 43.7988-21.2891L43.7988-48.9258C43.7988-50.2441 45.3125-50.8789 46.5332-50.1465L68.5547-36.6699C69.8242-35.8887 69.8242-34.2285 68.5547-33.3984Z"
         id="path1017"
         style="fill:#d15d79;fill-opacity:1" />
    </g>
  </g>
</svg>
