<?xml version="1.0" encoding="UTF-8" standalone="no"?>
<svg
   xmlns:dc="http://purl.org/dc/elements/1.1/"
   xmlns:cc="http://creativecommons.org/ns#"
   xmlns:rdf="http://www.w3.org/1999/02/22-rdf-syntax-ns#"
   xmlns:svg="http://www.w3.org/2000/svg"
   xmlns="http://www.w3.org/2000/svg"
   xmlns:sodipodi="http://sodipodi.sourceforge.net/DTD/sodipodi-0.dtd"
   xmlns:inkscape="http://www.inkscape.org/namespaces/inkscape"
   version="1.1"
   width="3300"
   height="2200"
   id="svg1432"
   sodipodi:docname="tv.music.note.fill.svg"
   inkscape:version="1.0.1 (c497b03c, 2020-09-10)">
  <metadata
     id="metadata1438">
    <rdf:RDF>
      <cc:Work
         rdf:about="">
        <dc:format>image/svg+xml</dc:format>
        <dc:type
           rdf:resource="http://purl.org/dc/dcmitype/StillImage" />
      </cc:Work>
    </rdf:RDF>
  </metadata>
  <defs
     id="defs1436" />
  <sodipodi:namedview
     pagecolor="#ffffff"
     bordercolor="#666666"
     borderopacity="1"
     objecttolerance="10"
     gridtolerance="10"
     guidetolerance="10"
     inkscape:pageopacity="0"
     inkscape:pageshadow="2"
     inkscape:window-width="1440"
     inkscape:window-height="900"
     id="namedview1434"
     showgrid="false"
     inkscape:zoom="0.275"
     inkscape:cx="1533.6364"
     inkscape:cy="1012.7273"
     inkscape:window-x="0"
     inkscape:window-y="0"
     inkscape:window-maximized="0"
     inkscape:current-layer="Symbols" />
  <!--glyph: "uni1004B7.medium", point size: 100.000000, font version: "Version 16.0d18e1", template writer version: "8"-->
  <g
     id="Notes">
    <rect
       height="2200"
       id="artboard"
       style="fill:white;opacity:1"
       width="3300"
       x="0"
       y="0" />
    <line
       id=""
       style="fill:none;stroke:black;opacity:1;stroke-width:0.5;"
       x1="263"
       x2="3036"
       y1="292"
       y2="292" />
    <text
       style="stroke:none;fill:black;font-family:-apple-system,&quot;SF Pro Display&quot;,&quot;SF Pro Text&quot;,Helvetica,sans-serif;font-weight:bold;"
       transform="matrix(1 0 0 1 263 322)"
       id="text1246">Weight/Scale Variations</text>
    <text
       style="stroke:none;fill:black;font-family:-apple-system,&quot;SF Pro Display&quot;,&quot;SF Pro Text&quot;,Helvetica,sans-serif;text-anchor:middle;"
       transform="matrix(1 0 0 1 559.711 322)"
       id="text1248">Ultralight</text>
    <text
       style="stroke:none;fill:black;font-family:-apple-system,&quot;SF Pro Display&quot;,&quot;SF Pro Text&quot;,Helvetica,sans-serif;text-anchor:middle;"
       transform="matrix(1 0 0 1 856.422 322)"
       id="text1250">Thin</text>
    <text
       style="stroke:none;fill:black;font-family:-apple-system,&quot;SF Pro Display&quot;,&quot;SF Pro Text&quot;,Helvetica,sans-serif;text-anchor:middle;"
       transform="matrix(1 0 0 1 1153.13 322)"
       id="text1252">Light</text>
    <text
       style="stroke:none;fill:black;font-family:-apple-system,&quot;SF Pro Display&quot;,&quot;SF Pro Text&quot;,Helvetica,sans-serif;text-anchor:middle;"
       transform="matrix(1 0 0 1 1449.84 322)"
       id="text1254">Regular</text>
    <text
       style="stroke:none;fill:black;font-family:-apple-system,&quot;SF Pro Display&quot;,&quot;SF Pro Text&quot;,Helvetica,sans-serif;text-anchor:middle;"
       transform="matrix(1 0 0 1 1746.56 322)"
       id="text1256">Medium</text>
    <text
       style="stroke:none;fill:black;font-family:-apple-system,&quot;SF Pro Display&quot;,&quot;SF Pro Text&quot;,Helvetica,sans-serif;text-anchor:middle;"
       transform="matrix(1 0 0 1 2043.27 322)"
       id="text1258">Semibold</text>
    <text
       style="stroke:none;fill:black;font-family:-apple-system,&quot;SF Pro Display&quot;,&quot;SF Pro Text&quot;,Helvetica,sans-serif;text-anchor:middle;"
       transform="matrix(1 0 0 1 2339.98 322)"
       id="text1260">Bold</text>
    <text
       style="stroke:none;fill:black;font-family:-apple-system,&quot;SF Pro Display&quot;,&quot;SF Pro Text&quot;,Helvetica,sans-serif;text-anchor:middle;"
       transform="matrix(1 0 0 1 2636.69 322)"
       id="text1262">Heavy</text>
    <text
       style="stroke:none;fill:black;font-family:-apple-system,&quot;SF Pro Display&quot;,&quot;SF Pro Text&quot;,Helvetica,sans-serif;text-anchor:middle;"
       transform="matrix(1 0 0 1 2933.4 322)"
       id="text1264">Black</text>
    <line
       id="line1266"
       style="fill:none;stroke:black;opacity:1;stroke-width:0.5;"
       x1="263"
       x2="3036"
       y1="1903"
       y2="1903" />
    <g
       id="g1270"
       transform="matrix(1 0 0 1 263 1933)">
      <path
         d="M9.24805 0.830078C13.5547 0.830078 17.1387-2.74414 17.1387-7.05078C17.1387-11.3574 13.5449-14.9316 9.23828-14.9316C4.94141-14.9316 1.36719-11.3574 1.36719-7.05078C1.36719-2.74414 4.95117 0.830078 9.24805 0.830078ZM9.24805-0.654297C5.70312-0.654297 2.87109-3.49609 2.87109-7.05078C2.87109-10.6055 5.69336-13.4473 9.23828-13.4473C12.793-13.4473 15.6348-10.6055 15.6445-7.05078C15.6543-3.49609 12.8027-0.654297 9.24805-0.654297ZM6.39648-6.31836L8.50586-6.31836L8.50586-4.19922C8.50586-3.75977 8.79883-3.45703 9.22852-3.45703C9.67773-3.45703 9.9707-3.75977 9.9707-4.19922L9.9707-6.31836L12.0996-6.31836C12.5391-6.31836 12.8418-6.61133 12.8418-7.04102C12.8418-7.48047 12.5391-7.7832 12.0996-7.7832L9.9707-7.7832L9.9707-9.89258C9.9707-10.3418 9.67773-10.6445 9.22852-10.6445C8.79883-10.6445 8.50586-10.3418 8.50586-9.89258L8.50586-7.7832L6.39648-7.7832C5.94727-7.7832 5.64453-7.48047 5.64453-7.04102C5.64453-6.61133 5.94727-6.31836 6.39648-6.31836Z"
         id="path1268" />
    </g>
    <g
       id="g1274"
       transform="matrix(1 0 0 1 281.506 1933)">
      <path
         d="M11.709 2.91016C17.1582 2.91016 21.6699-1.61133 21.6699-7.05078C21.6699-12.5 17.1484-17.0117 11.6992-17.0117C6.25977-17.0117 1.74805-12.5 1.74805-7.05078C1.74805-1.61133 6.26953 2.91016 11.709 2.91016ZM11.709 1.25C7.09961 1.25 3.41797-2.44141 3.41797-7.05078C3.41797-11.6602 7.08984-15.3516 11.6992-15.3516C16.3086-15.3516 20-11.6602 20.0098-7.05078C20.0195-2.44141 16.3184 1.25 11.709 1.25ZM7.98828-6.23047L10.8789-6.23047L10.8789-3.32031C10.8789-2.83203 11.2109-2.5 11.6895-2.5C12.1777-2.5 12.5195-2.83203 12.5195-3.32031L12.5195-6.23047L15.4297-6.23047C15.918-6.23047 16.25-6.5625 16.25-7.04102C16.25-7.5293 15.918-7.87109 15.4297-7.87109L12.5195-7.87109L12.5195-10.7617C12.5195-11.2695 12.1777-11.6016 11.6895-11.6016C11.2109-11.6016 10.8789-11.2598 10.8789-10.7617L10.8789-7.87109L7.98828-7.87109C7.48047-7.87109 7.14844-7.5293 7.14844-7.04102C7.14844-6.5625 7.49023-6.23047 7.98828-6.23047Z"
         id="path1272" />
    </g>
    <g
       id="g1278"
       transform="matrix(1 0 0 1 304.924 1933)">
      <path
         d="M14.9707 5.66406C21.9336 5.66406 27.6953-0.0976562 27.6953-7.05078C27.6953-14.0137 21.9238-19.7754 14.9609-19.7754C8.00781-19.7754 2.25586-14.0137 2.25586-7.05078C2.25586-0.0976562 8.01758 5.66406 14.9707 5.66406ZM14.9707 3.84766C8.93555 3.84766 4.08203-1.01562 4.08203-7.05078C4.08203-13.0957 8.92578-17.9492 14.9609-17.9492C21.0059-17.9492 25.8594-13.0957 25.8691-7.05078C25.8789-1.01562 21.0156 3.84766 14.9707 3.84766ZM10.0586-6.14258L14.0625-6.14258L14.0625-2.12891C14.0625-1.5918 14.4336-1.2207 14.9512-1.2207C15.4883-1.2207 15.8594-1.5918 15.8594-2.12891L15.8594-6.14258L19.8828-6.14258C20.4102-6.14258 20.791-6.51367 20.791-7.03125C20.791-7.56836 20.4199-7.94922 19.8828-7.94922L15.8594-7.94922L15.8594-11.9531C15.8594-12.5098 15.4883-12.8809 14.9512-12.8809C14.4336-12.8809 14.0625-12.5 14.0625-11.9531L14.0625-7.94922L10.0586-7.94922C9.50195-7.94922 9.13086-7.56836 9.13086-7.03125C9.13086-6.51367 9.51172-6.14258 10.0586-6.14258Z"
         id="path1276" />
    </g>
    <text
       style="stroke:none;fill:black;font-family:-apple-system,&quot;SF Pro Display&quot;,&quot;SF Pro Text&quot;,Helvetica,sans-serif;font-weight:bold;"
       transform="matrix(1 0 0 1 263 1953)"
       id="text1280">Design Variations</text>
    <text
       style="stroke:none;fill:black;font-family:-apple-system,&quot;SF Pro Display&quot;,&quot;SF Pro Text&quot;,Helvetica,sans-serif;"
       transform="matrix(1 0 0 1 263 1971)"
       id="text1282">Symbols are supported in up to nine weights and three scales.</text>
    <text
       style="stroke:none;fill:black;font-family:-apple-system,&quot;SF Pro Display&quot;,&quot;SF Pro Text&quot;,Helvetica,sans-serif;"
       transform="matrix(1 0 0 1 263 1989)"
       id="text1284">For optimal layout with text and other symbols, vertically align</text>
    <text
       style="stroke:none;fill:black;font-family:-apple-system,&quot;SF Pro Display&quot;,&quot;SF Pro Text&quot;,Helvetica,sans-serif;"
       transform="matrix(1 0 0 1 263 2007)"
       id="text1286">symbols with the adjacent text.</text>
    <line
       id="line1288"
       style="fill:none;stroke:#00AEEF;stroke-width:0.5;opacity:1.0;"
       x1="776"
       x2="776"
       y1="1919"
       y2="1933" />
    <g
       id="g1292"
       transform="matrix(1 0 0 1 776 1933)">
      <path
         d="M3.31055 0.126953C3.82812 0.126953 4.08203-0.0683594 4.26758-0.605469L5.52734-4.0625L11.2891-4.0625L12.5488-0.605469C12.7344-0.0683594 12.9883 0.126953 13.4961 0.126953C14.0137 0.126953 14.3457-0.185547 14.3457-0.673828C14.3457-0.839844 14.3164-0.986328 14.2383-1.20117L9.6582-13.3887C9.43359-13.9941 9.0332-14.2871 8.4082-14.2871C7.80273-14.2871 7.39258-13.9941 7.17773-13.3984L2.59766-1.19141C2.51953-0.976562 2.49023-0.830078 2.49023-0.664062C2.49023-0.175781 2.80273 0.126953 3.31055 0.126953ZM6.00586-5.53711L8.37891-12.1094L8.42773-12.1094L10.8008-5.53711Z"
         id="path1290" />
    </g>
    <line
       id="line1294"
       style="fill:none;stroke:#00AEEF;stroke-width:0.5;opacity:1.0;"
       x1="792.836"
       x2="792.836"
       y1="1919"
       y2="1933" />
    <text
       style="stroke:none;fill:black;font-family:-apple-system,&quot;SF Pro Display&quot;,&quot;SF Pro Text&quot;,Helvetica,sans-serif;font-weight:bold;"
       transform="matrix(1 0 0 1 776 1953)"
       id="text1296">Margins</text>
    <text
       style="stroke:none;fill:black;font-family:-apple-system,&quot;SF Pro Display&quot;,&quot;SF Pro Text&quot;,Helvetica,sans-serif;"
       transform="matrix(1 0 0 1 776 1971)"
       id="text1298">Leading and trailing margins on the left and right side of each symbol</text>
    <text
       style="stroke:none;fill:black;font-family:-apple-system,&quot;SF Pro Display&quot;,&quot;SF Pro Text&quot;,Helvetica,sans-serif;"
       transform="matrix(1 0 0 1 776 1989)"
       id="text1300">can be adjusted by modifying the x-location of the margin guidelines.</text>
    <text
       style="stroke:none;fill:black;font-family:-apple-system,&quot;SF Pro Display&quot;,&quot;SF Pro Text&quot;,Helvetica,sans-serif;"
       transform="matrix(1 0 0 1 776 2007)"
       id="text1302">Modifications are automatically applied proportionally to all</text>
    <text
       style="stroke:none;fill:black;font-family:-apple-system,&quot;SF Pro Display&quot;,&quot;SF Pro Text&quot;,Helvetica,sans-serif;"
       transform="matrix(1 0 0 1 776 2025)"
       id="text1304">scales and weights.</text>
    <g
       id="g1308"
       transform="matrix(1 0 0 1 1289 1933)">
      <path
         d="M2.8418 1.86523L4.54102 3.57422C5.40039 4.44336 6.38672 4.38477 7.31445 3.35938L17.4902-7.85156C17.7539-7.76367 18.0273-7.7832 18.3398-7.8418L19.4043-8.03711L20.0684-7.36328L20.0293-6.80664C19.9902-6.30859 20.1172-5.92773 20.6055-5.44922L21.3672-4.70703C21.8457-4.22852 22.4609-4.19922 22.9297-4.66797L25.8398-7.58789C26.3086-8.05664 26.2891-8.65234 25.8105-9.13086L25.0391-9.89258C24.5605-10.3711 24.1895-10.5273 23.7109-10.4883L23.1348-10.4395L22.4902-11.0742L22.7344-12.1973C22.8613-12.7637 22.7051-13.2031 22.1191-13.7891L19.9219-15.9766C16.582-19.2969 12.1484-19.2188 9.25781-16.3281C8.83789-15.918 8.80859-15.3418 9.04297-14.9512C9.27734-14.5898 9.73633-14.3555 10.3809-14.5215C11.8457-14.8633 13.3691-14.9219 14.7949-13.9844L14.209-12.5293C14.0137-12.0508 13.9844-11.6504 14.1113-11.2891L3.04688-0.898438C2.06055 0.0195312 1.98242 0.996094 2.8418 1.86523ZM10.752-15.957C13.1836-17.7344 16.4746-17.4316 18.7012-15.2051L21.1328-12.793C21.3672-12.5586 21.4062-12.373 21.3379-12.0312L21.0156-10.5469L22.5195-9.0625L23.5059-9.12109C23.7598-9.13086 23.8379-9.11133 24.0332-8.91602L24.6094-8.33984L22.168-5.89844L21.5918-6.47461C21.3965-6.66992 21.3672-6.74805 21.377-7.01172L21.4453-7.98828L19.9512-9.47266L18.4277-9.21875C18.1055-9.15039 17.959-9.17969 17.7148-9.41406L15.7129-11.416C15.459-11.6504 15.4297-11.8164 15.5859-12.1875L16.4648-14.2773C14.9023-15.7324 12.8711-16.3574 10.8398-15.7617C10.6836-15.7227 10.625-15.8496 10.752-15.957ZM5.27344 2.30469L4.10156 1.14258C3.63281 0.683594 3.74023 0.341797 4.14062-0.0195312L14.9512-10.1953L16.416-8.71094L6.42578 2.27539C6.07422 2.67578 5.74219 2.77344 5.27344 2.30469Z"
         id="path1306" />
    </g>
    <text
       style="stroke:none;fill:black;font-family:-apple-system,&quot;SF Pro Display&quot;,&quot;SF Pro Text&quot;,Helvetica,sans-serif;font-weight:bold;"
       transform="matrix(1 0 0 1 1289 1953)"
       id="text1310">Exporting</text>
    <text
       style="stroke:none;fill:black;font-family:-apple-system,&quot;SF Pro Display&quot;,&quot;SF Pro Text&quot;,Helvetica,sans-serif;"
       transform="matrix(1 0 0 1 1289 1971)"
       id="text1312">Symbols should be outlined when exporting to ensure the</text>
    <text
       style="stroke:none;fill:black;font-family:-apple-system,&quot;SF Pro Display&quot;,&quot;SF Pro Text&quot;,Helvetica,sans-serif;"
       transform="matrix(1 0 0 1 1289 1989)"
       id="text1314">design is preserved when submitting to Xcode.</text>
    <text
       id="template-version"
       style="stroke:none;fill:black;font-family:-apple-system,&quot;SF Pro Display&quot;,&quot;SF Pro Text&quot;,Helvetica,sans-serif;text-anchor:end;"
       transform="matrix(1 0 0 1 3036 1933)">Template v.2.0</text>
    <text
       style="stroke:none;fill:black;font-family:-apple-system,&quot;SF Pro Display&quot;,&quot;SF Pro Text&quot;,Helvetica,sans-serif;text-anchor:end;"
       transform="matrix(1 0 0 1 3036 1951)"
       id="text1317">Requires Xcode 12 or greater</text>
    <text
       style="stroke:none;fill:black;font-family:-apple-system,&quot;SF Pro Display&quot;,&quot;SF Pro Text&quot;,Helvetica,sans-serif;text-anchor:end;"
       transform="matrix(1 0 0 1 3036 1969)"
       id="text1319">Generated from tv.music.note.fill</text>
    <text
       style="stroke:none;fill:black;font-family:-apple-system,&quot;SF Pro Display&quot;,&quot;SF Pro Text&quot;,Helvetica,sans-serif;text-anchor:end;"
       transform="matrix(1 0 0 1 3036 1987)"
       id="text1321">Typeset at 100 points</text>
    <text
       style="stroke:none;fill:black;font-family:-apple-system,&quot;SF Pro Display&quot;,&quot;SF Pro Text&quot;,Helvetica,sans-serif;"
       transform="matrix(1 0 0 1 263 726)"
       id="text1323">Small</text>
    <text
       style="stroke:none;fill:black;font-family:-apple-system,&quot;SF Pro Display&quot;,&quot;SF Pro Text&quot;,Helvetica,sans-serif;"
       transform="matrix(1 0 0 1 263 1156)"
       id="text1325">Medium</text>
    <text
       style="stroke:none;fill:black;font-family:-apple-system,&quot;SF Pro Display&quot;,&quot;SF Pro Text&quot;,Helvetica,sans-serif;"
       transform="matrix(1 0 0 1 263 1586)"
       id="text1327">Large</text>
  </g>
  <g
     id="Guides">
    <g
       id="H-reference"
       style="fill:#27AAE1;stroke:none;"
       transform="matrix(1 0 0 1 339 696)">
      <path
         d="M0.976562 0L3.66211 0L12.9883-24.4629L45.752-24.4629L55.127 0L57.7637 0L30.6152-70.459L28.125-70.459ZM29.3457-67.1387L29.4434-67.1387L44.873-26.709L13.8672-26.709Z"
         id="path1330" />
    </g>
    <line
       id="Baseline-S"
       style="fill:none;stroke:#27AAE1;opacity:1;stroke-width:0.5;"
       x1="263"
       x2="3036"
       y1="696"
       y2="696" />
    <line
       id="Capline-S"
       style="fill:none;stroke:#27AAE1;opacity:1;stroke-width:0.5;"
       x1="263"
       x2="3036"
       y1="625.541"
       y2="625.541" />
    <g
       id="g1337"
       style="fill:#27AAE1;stroke:none;"
       transform="matrix(1 0 0 1 339 1126)">
      <path
         d="M0.976562 0L3.66211 0L12.9883-24.4629L45.752-24.4629L55.127 0L57.7637 0L30.6152-70.459L28.125-70.459ZM29.3457-67.1387L29.4434-67.1387L44.873-26.709L13.8672-26.709Z"
         id="path1335" />
    </g>
    <line
       id="Baseline-M"
       style="fill:none;stroke:#27AAE1;opacity:1;stroke-width:0.5;"
       x1="263"
       x2="3036"
       y1="1126"
       y2="1126" />
    <line
       id="Capline-M"
       style="fill:none;stroke:#27AAE1;opacity:1;stroke-width:0.5;"
       x1="263"
       x2="3036"
       y1="1055.54"
       y2="1055.54" />
    <g
       id="g1343"
       style="fill:#27AAE1;stroke:none;"
       transform="matrix(1 0 0 1 339 1556)">
      <path
         d="M0.976562 0L3.66211 0L12.9883-24.4629L45.752-24.4629L55.127 0L57.7637 0L30.6152-70.459L28.125-70.459ZM29.3457-67.1387L29.4434-67.1387L44.873-26.709L13.8672-26.709Z"
         id="path1341" />
    </g>
    <line
       id="Baseline-L"
       style="fill:none;stroke:#27AAE1;opacity:1;stroke-width:0.5;"
       x1="263"
       x2="3036"
       y1="1556"
       y2="1556" />
    <line
       id="Capline-L"
       style="fill:none;stroke:#27AAE1;opacity:1;stroke-width:0.5;"
       x1="263"
       x2="3036"
       y1="1485.54"
       y2="1485.54" />
    <line
       id="left-margin"
       style="fill:none;stroke:#00AEEF;stroke-width:0.5;opacity:1.0;"
       x1="1376.43"
       x2="1376.43"
       y1="1030.79"
       y2="1150.12" />
    <line
       id="right-margin"
       style="fill:none;stroke:#00AEEF;stroke-width:0.5;opacity:1.0;"
       x1="1523.26"
       x2="1523.26"
       y1="1030.79"
       y2="1150.12" />
  </g>
  <g
     id="Symbols">
    <g
       id="Black-L"
       transform="matrix(1 0 0 1 2832.25 1556)"
       style="fill:#d15d79;fill-opacity:1">
      <path
         d="M37.6953 11.377L164.6 11.377C178.418 11.377 186.23 3.61328 186.23-10.2539L186.23-84.1797C186.23-98.0957 178.418-105.811 164.6-105.811L37.6953-105.811C23.877-105.811 16.0645-98.0957 16.0645-84.1797L16.0645-10.2539C16.0645 3.61328 23.877 11.377 37.6953 11.377ZM119.531-56.7871L104.785-53.2227C103.711-52.9297 103.418-52.6367 103.418-50.7324L103.418-32.2754C103.418-22.5586 96.7285-15.7227 87.207-15.7227C80.5176-15.7227 75.8789-19.873 75.8789-25.8301C75.8789-31.9336 80.2734-36.084 87.1094-37.8418L92.8223-39.3555C95.5566-40.0391 95.7031-40.2344 95.7031-42.7246L95.7031-68.2129C95.7031-72.2168 96.582-73.291 100.146-74.1699L118.945-78.8574C122.559-79.7363 124.17-78.5645 124.17-75.3906L124.17-62.6953C124.17-58.7891 123.193-57.666 119.531-56.7871ZM66.9922 36.084L135.352 36.084C139.795 36.084 143.359 32.3242 143.359 28.125C143.359 23.9258 139.795 20.166 135.352 20.166L66.9922 20.166C62.5 20.166 58.9844 23.9258 58.9844 28.125C58.9844 32.3242 62.5 36.084 66.9922 36.084Z"
         id="path1350"
         style="fill:#d15d79;fill-opacity:1" />
    </g>
    <g
       id="Heavy-L"
       transform="matrix(1 0 0 1 2537.37 1556)"
       style="fill:#d15d79;fill-opacity:1">
      <path
         d="M36.1816 10.1562L162.451 10.1562C175.391 10.1562 182.568 3.07617 182.568-9.96094L182.568-83.5449C182.568-96.6309 175.391-103.711 162.451-103.711L36.1816-103.711C23.2422-103.711 16.0645-96.6309 16.0645-83.5449L16.0645-9.96094C16.0645 3.07617 23.2422 10.1562 36.1816 10.1562ZM117.822-57.1777L103.027-53.5645C101.855-53.2715 101.514-52.9297 101.514-50.8789L101.514-31.4453C101.514-21.8262 95.0195-15.0879 85.5469-15.0879C78.9551-15.0879 74.4629-19.1895 74.4629-25C74.4629-31.1523 78.9551-35.1074 85.5469-36.8164L91.3086-38.3301C94.1895-39.0625 94.3359-39.3555 94.3359-41.9434L94.3359-68.3105C94.3359-72.3145 95.1172-73.2422 98.6328-74.1211L117.334-78.7598C120.898-79.6875 122.314-78.4668 122.314-75.4883L122.314-62.8906C122.314-59.0332 121.387-58.0078 117.822-57.1777ZM65.8691 33.7402L132.764 33.7402C136.768 33.7402 139.941 30.4199 139.941 26.6602C139.941 22.8516 136.768 19.5312 132.764 19.5312L65.8691 19.5312C61.9141 19.5312 58.7402 22.8516 58.7402 26.6602C58.7402 30.4199 61.9141 33.7402 65.8691 33.7402Z"
         id="path1353"
         style="fill:#d15d79;fill-opacity:1" />
    </g>
    <g
       id="Bold-L"
       transform="matrix(1 0 0 1 2242.71 1556)"
       style="fill:#d15d79;fill-opacity:1">
      <path
         d="M34.5215 8.78906L160.01 8.78906C172.021 8.78906 178.467 2.44141 178.467-9.66797L178.467-82.8613C178.467-94.9707 172.021-101.318 160.01-101.318L34.5215-101.318C22.5586-101.318 16.0645-94.9707 16.0645-82.8613L16.0645-9.66797C16.0645 2.44141 22.5586 8.78906 34.5215 8.78906ZM115.967-57.5684L101.074-53.9551C99.8047-53.6621 99.4141-53.2227 99.4141-51.0742L99.4141-30.4688C99.4141-20.9961 93.0664-14.3555 83.7402-14.3555C77.1973-14.3555 72.8516-18.3594 72.8516-24.0723C72.8516-30.2246 77.4902-34.0332 83.7891-35.6445L89.5996-37.207C92.5781-37.9883 92.7734-38.3301 92.7734-41.0156L92.7734-68.457C92.7734-72.3633 93.5547-73.1934 96.9238-74.0723L115.527-78.6621C119.092-79.541 120.264-78.418 120.264-75.5859L120.264-63.0859C120.264-59.2773 119.336-58.3984 115.967-57.5684ZM64.6484 31.1523L129.932 31.1523C133.35 31.1523 136.084 28.2715 136.084 25C136.084 21.6797 133.35 18.7988 129.932 18.7988L64.6484 18.7988C61.1816 18.7988 58.4473 21.6797 58.4473 25C58.4473 28.2715 61.1816 31.1523 64.6484 31.1523Z"
         id="path1356"
         style="fill:#d15d79;fill-opacity:1" />
    </g>
    <g
       id="Semibold-L"
       transform="matrix(1 0 0 1 1947.42 1556)"
       style="fill:#d15d79;fill-opacity:1">
      <path
         d="M33.3496 7.86133L158.35 7.86133C169.678 7.86133 175.635 2.00195 175.635-9.47266L175.635-82.373C175.635-93.8477 169.678-99.6582 158.35-99.6582L33.3496-99.6582C22.0215-99.6582 16.0645-93.8477 16.0645-82.373L16.0645-9.47266C16.0645 2.00195 22.0215 7.86133 33.3496 7.86133ZM114.648-57.8613L99.707-54.248C98.3887-53.9062 97.9492-53.418 97.9492-51.2207L97.9492-29.834C97.9492-20.459 91.6992-13.8672 82.4707-13.8672C75.9766-13.8672 71.7773-17.8223 71.7773-23.4375C71.7773-29.5898 76.4648-33.252 82.5684-34.8633L88.4277-36.4258C91.5039-37.207 91.6992-37.6465 91.6992-40.3809L91.6992-68.5547C91.6992-72.4121 92.4805-73.1934 95.752-74.0234L114.307-78.6133C117.822-79.4922 118.848-78.3691 118.848-75.6836L118.848-63.2324C118.848-59.4727 117.969-58.6426 114.648-57.8613ZM63.7695 29.3457L127.93 29.3457C131.006 29.3457 133.447 26.8066 133.447 23.8281C133.447 20.8496 131.006 18.3105 127.93 18.3105L63.7695 18.3105C60.7422 18.3105 58.252 20.8496 58.252 23.8281C58.252 26.8066 60.7422 29.3457 63.7695 29.3457Z"
         id="path1359"
         style="fill:#d15d79;fill-opacity:1" />
    </g>
    <g
       id="Medium-L"
       transform="matrix(1 0 0 1 1651.78 1556)"
       style="fill:#d15d79;fill-opacity:1">
      <path
         d="M32.4707 7.12891L157.08 7.12891C167.92 7.12891 173.486 1.70898 173.486-9.27734L173.486-82.0312C173.486-93.0176 167.92-98.4375 157.08-98.4375L32.4707-98.4375C21.6797-98.4375 16.0645-93.0176 16.0645-82.0312L16.0645-9.27734C16.0645 1.70898 21.6797 7.12891 32.4707 7.12891ZM113.672-58.0566L98.7305-54.4434C97.3145-54.1016 96.875-53.5645 96.875-51.3184L96.875-29.3457C96.875-20.0195 90.7227-13.4766 81.543-13.4766C75.0977-13.4766 70.9473-17.3828 70.9473-22.9492C70.9473-29.1504 75.6836-32.7148 81.6406-34.2773L87.5488-35.8398C90.6738-36.6699 90.918-37.1094 90.918-39.9414L90.918-68.6523C90.918-72.4609 91.6504-73.1445 94.8242-73.9746L113.379-78.5645C116.846-79.4434 117.773-78.3203 117.773-75.7324L117.773-63.3301C117.773-59.5703 116.895-58.8379 113.672-58.0566ZM63.1348 27.9297L126.416 27.9297C129.199 27.9297 131.445 25.6836 131.445 22.998C131.445 20.2148 129.199 17.9688 126.416 17.9688L63.1348 17.9688C60.3516 17.9688 58.1055 20.2148 58.1055 22.998C58.1055 25.6836 60.3516 27.9297 63.1348 27.9297Z"
         id="path1362"
         style="fill:#d15d79;fill-opacity:1" />
    </g>
    <g
       id="Regular-L"
       transform="matrix(1 0 0 1 1356.46 1556)"
       style="fill:#d15d79;fill-opacity:1">
      <path
         d="M31.3477 6.20117L155.42 6.20117C165.576 6.20117 170.703 1.26953 170.703-9.08203L170.703-81.543C170.703-91.8945 165.576-96.7773 155.42-96.7773L31.3477-96.7773C21.1914-96.7773 16.0645-91.8945 16.0645-81.543L16.0645-9.08203C16.0645 1.26953 21.1914 6.20117 31.3477 6.20117ZM112.402-58.3496L97.3633-54.7363C95.9473-54.3945 95.4102-53.8086 95.4102-51.416L95.4102-28.6621C95.4102-19.4336 89.3555-12.9883 80.2734-12.9883C73.877-12.9883 69.8242-16.8457 69.8242-22.3145C69.8242-28.5156 74.6582-31.9336 80.4688-33.4473L86.4258-35.0586C89.6484-35.8887 89.8438-36.4258 89.8438-39.3066L89.8438-68.75C89.8438-72.5098 90.5273-73.1445 93.6523-73.9258L112.158-78.4668C115.576-79.3457 116.357-78.2715 116.357-75.8301L116.357-63.4766C116.357-59.7656 115.527-59.082 112.402-58.3496ZM62.3047 26.1719L124.463 26.1719C126.904 26.1719 128.857 24.2188 128.857 21.8262C128.857 19.3848 126.904 17.4805 124.463 17.4805L62.3047 17.4805C59.8633 17.4805 57.9102 19.3848 57.9102 21.8262C57.9102 24.2188 59.8633 26.1719 62.3047 26.1719Z"
         id="path1365"
         style="fill:#d15d79;fill-opacity:1" />
    </g>
    <g
       id="Light-L"
       transform="matrix(1 0 0 1 1061.61 1556)"
       style="fill:#d15d79;fill-opacity:1">
      <path
         d="M30.0781 6.00586L152.979 6.00586C162.305 6.00586 166.992 1.46484 166.992-7.95898L166.992-80.7617C166.992-90.1855 162.305-94.7754 152.979-94.7754L30.0781-94.7754C20.752-94.7754 16.0645-90.1855 16.0645-80.7617L16.0645-7.95898C16.0645 1.46484 20.752 6.00586 30.0781 6.00586ZM109.326-57.6172L94.9219-54.1992C93.5547-53.8574 93.1152-53.3203 93.1152-51.123L93.1152-28.1738C93.1152-19.4824 87.5488-13.3301 78.9551-13.3301C72.9004-13.3301 69.0918-16.9922 69.0918-22.168C69.0918-28.0273 73.6328-31.25 79.1016-32.7148L84.9121-34.2773C87.9395-35.1074 88.1836-35.5957 88.1836-38.3301L88.1836-67.334C88.1836-70.9473 88.8184-71.5332 91.7969-72.2656L109.082-76.4648C112.354-77.2949 113.086-76.3184 113.086-73.9746L113.086-62.5C113.086-58.9355 112.256-58.3496 109.326-57.6172ZM61.1328 24.1699L121.973 24.1699C123.828 24.1699 125.293 22.7051 125.293 20.8496C125.293 18.9453 123.828 17.4805 121.973 17.4805L61.1328 17.4805C59.2773 17.4805 57.7637 18.9453 57.7637 20.8496C57.7637 22.7051 59.2773 24.1699 61.1328 24.1699Z"
         id="path1368"
         style="fill:#d15d79;fill-opacity:1" />
    </g>
    <g
       id="Thin-L"
       transform="matrix(1 0 0 1 767.335 1556)"
       style="fill:#d15d79;fill-opacity:1">
      <path
         d="M28.418 5.81055L149.756 5.81055C157.959 5.81055 162.109 1.66016 162.109-6.54297L162.109-79.7852C162.109-87.9883 157.959-92.0898 149.756-92.0898L28.418-92.0898C20.2148-92.0898 16.0645-87.9883 16.0645-79.7852L16.0645-6.54297C16.0645 1.66016 20.2148 5.81055 28.418 5.81055ZM105.225-56.6895L91.6504-53.4668C90.4297-53.2227 90.0391-52.7344 90.0391-50.6836L90.0391-27.5391C90.0391-19.4824 85.1562-13.8184 77.1973-13.8184C71.6309-13.8184 68.0664-17.1875 68.0664-22.0215C68.0664-27.3926 72.2656-30.3711 77.3438-31.7383L82.9102-33.3008C85.7422-34.082 85.9863-34.5215 85.9863-36.9629L85.9863-65.5273C85.9863-68.8965 86.5234-69.4336 89.3066-70.1172L104.98-73.8281C108.057-74.6094 108.691-73.6816 108.691-71.5332L108.691-61.1816C108.691-57.9102 107.959-57.3242 105.225-56.6895ZM59.5703 21.4844L118.604 21.4844C119.775 21.4844 120.654 20.6543 120.654 19.5312C120.654 18.3594 119.775 17.5293 118.604 17.5293L59.5703 17.5293C58.4473 17.5293 57.5195 18.3594 57.5195 19.5312C57.5195 20.6543 58.4473 21.4844 59.5703 21.4844Z"
         id="path1371"
         style="fill:#d15d79;fill-opacity:1" />
    </g>
    <g
       id="Ultralight-L"
       transform="matrix(1 0 0 1 471.869 1556)"
       style="fill:#d15d79;fill-opacity:1">
      <path
         d="M27.5391 5.71289L148.145 5.71289C155.713 5.71289 159.619 1.75781 159.619-5.81055L159.619-79.248C159.619-86.8164 155.713-90.7227 148.145-90.7227L27.5391-90.7227C19.9707-90.7227 16.0645-86.8164 16.0645-79.248L16.0645-5.81055C16.0645 1.75781 19.9707 5.71289 27.5391 5.71289ZM103.125-56.2012L89.9902-53.125C88.8184-52.8809 88.4277-52.3926 88.4277-50.4395L88.4277-27.2461C88.4277-19.5312 83.9355-14.0625 76.3184-14.0625C70.9473-14.0625 67.5781-17.2852 67.5781-21.9727C67.5781-27.0508 71.582-29.8828 76.4648-31.25L81.8848-32.7637C84.6191-33.5449 84.8633-33.9355 84.8633-36.3281L84.8633-64.5508C84.8633-67.8223 85.3516-68.3594 88.0371-68.9941L102.93-72.5098C105.811-73.1934 106.445-72.3633 106.445-70.3125L106.445-60.5469C106.445-57.373 105.762-56.8359 103.125-56.2012ZM58.7891 20.1172L116.895 20.1172C117.676 20.1172 118.262 19.6289 118.262 18.8477C118.262 18.0664 117.676 17.5781 116.895 17.5781L58.7891 17.5781C58.0078 17.5781 57.4219 18.0664 57.4219 18.8477C57.4219 19.6289 58.0078 20.1172 58.7891 20.1172Z"
         id="path1374"
         style="fill:#d15d79;fill-opacity:1" />
    </g>
    <g
       id="Black-M"
       transform="matrix(1 0 0 1 2853.52 1126)"
       style="fill:#d15d79;fill-opacity:1">
      <path
         d="M30.5664 2.44141L129.199 2.44141C140.576 2.44141 147.314-4.29688 147.314-15.6738L147.314-73.6328C147.314-85.0098 140.576-91.748 129.199-91.748L30.5664-91.748C19.1895-91.748 12.4512-85.0098 12.4512-73.6328L12.4512-15.6738C12.4512-4.29688 19.1895 2.44141 30.5664 2.44141ZM93.2617-51.0742L82.2266-48.3887C81.5918-48.2422 81.4453-48.0957 81.4453-46.8262L81.4453-33.8379C81.4453-26.416 76.3672-21.1914 69.0918-21.1914C63.9648-21.1914 60.3516-24.3652 60.3516-29.0039C60.3516-33.5449 63.4277-36.8164 68.9453-38.2812L73.1445-39.4043C75.0977-39.8926 75.1465-39.8926 75.1465-41.6016L75.1465-59.8633C75.1465-62.9883 75.8301-63.916 78.7109-64.5996L92.6758-68.0664C95.459-68.75 96.9238-67.8223 96.9238-65.1855L96.9238-55.7617C96.9238-52.7832 96.1914-51.7578 93.2617-51.0742ZM52.7832 22.1191L106.982 22.1191C110.791 22.1191 113.818 18.8477 113.818 15.332C113.818 11.8164 110.791 8.54492 106.982 8.54492L52.7832 8.54492C48.9746 8.54492 45.9473 11.8164 45.9473 15.332C45.9473 18.8477 48.9746 22.1191 52.7832 22.1191Z"
         id="path1377"
         style="fill:#d15d79;fill-opacity:1" />
    </g>
    <g
       id="Heavy-M"
       transform="matrix(1 0 0 1 2558.32 1126)"
       style="fill:#d15d79;fill-opacity:1">
      <path
         d="M29.248 1.17188L127.441 1.17188C138.135 1.17188 144.287-4.93164 144.287-15.6738L144.287-73.1445C144.287-83.8379 138.135-89.9414 127.441-89.9414L29.248-89.9414C18.5547-89.9414 12.4512-83.8379 12.4512-73.1445L12.4512-15.6738C12.4512-4.93164 18.5547 1.17188 29.248 1.17188ZM92.2363-51.6602L80.957-48.9258C80.1758-48.7305 79.9805-48.5352 79.9805-47.0703L79.9805-33.0078C79.9805-25.6348 74.9023-20.4102 67.627-20.4102C62.5-20.4102 58.9844-23.5352 58.9844-28.125C58.9844-32.7637 62.2559-35.9375 67.5781-37.3535L71.9238-38.4766C73.9746-39.0137 74.0723-39.1113 74.0723-40.9668L74.0723-60.3516C74.0723-63.4766 74.707-64.3066 77.4902-64.9902L91.748-68.5059C94.5312-69.1895 95.8008-68.2617 95.8008-65.8203L95.8008-56.2012C95.8008-53.2227 95.0684-52.3438 92.2363-51.6602ZM51.8555 20.0684L104.834 20.0684C108.301 20.0684 110.986 17.1875 110.986 13.9648C110.986 10.791 108.301 7.86133 104.834 7.86133L51.8555 7.86133C48.4375 7.86133 45.7031 10.791 45.7031 13.9648C45.7031 17.1875 48.4375 20.0684 51.8555 20.0684Z"
         id="path1380"
         style="fill:#d15d79;fill-opacity:1" />
    </g>
    <g
       id="Bold-M"
       transform="matrix(1 0 0 1 2263.32 1126)"
       style="fill:#d15d79;fill-opacity:1">
      <path
         d="M27.7832-0.292969L125.537-0.292969C135.4-0.292969 140.869-5.66406 140.869-15.625L140.869-72.6074C140.869-82.5684 135.4-87.9395 125.537-87.9395L27.7832-87.9395C17.9199-87.9395 12.4512-82.5684 12.4512-72.6074L12.4512-15.625C12.4512-5.66406 17.9199-0.292969 27.7832-0.292969ZM91.0645-52.2949L79.541-49.5117C78.6133-49.2676 78.3691-48.9746 78.3691-47.4121L78.3691-32.1289C78.3691-24.707 73.3398-19.4824 66.0156-19.4824C60.8887-19.4824 57.4707-22.6562 57.4707-27.1484C57.4707-31.9336 60.9375-34.9609 66.0156-36.2793L70.5078-37.4512C72.7539-38.0371 72.8516-38.2812 72.8516-40.2832L72.8516-60.9375C72.8516-64.0137 73.4863-64.6973 76.1719-65.3809L90.6738-68.9941C93.457-69.6777 94.4824-68.7988 94.4824-66.4551L94.4824-56.7383C94.4824-53.7109 93.7988-52.9785 91.0645-52.2949ZM50.8789 17.8223L102.441 17.8223C105.469 17.8223 107.861 15.2832 107.861 12.4512C107.861 9.57031 105.469 7.08008 102.441 7.08008L50.8789 7.08008C47.8516 7.08008 45.459 9.57031 45.459 12.4512C45.459 15.2832 47.8516 17.8223 50.8789 17.8223Z"
         id="path1383"
         style="fill:#d15d79;fill-opacity:1" />
    </g>
    <g
       id="Semibold-M"
       transform="matrix(1 0 0 1 1967.78 1126)"
       style="fill:#d15d79;fill-opacity:1">
      <path
         d="M26.7578-1.26953L124.17-1.26953C133.496-1.26953 138.525-6.15234 138.525-15.625L138.525-72.2168C138.525-81.6406 133.496-86.5234 124.17-86.5234L26.7578-86.5234C17.4316-86.5234 12.4512-81.6406 12.4512-72.2168L12.4512-15.625C12.4512-6.15234 17.4316-1.26953 26.7578-1.26953ZM90.2832-52.7832L78.5645-49.9512C77.5391-49.6582 77.2461-49.3164 77.2461-47.6074L77.2461-31.4941C77.2461-24.0723 72.2168-18.8477 64.9414-18.8477C59.7656-18.8477 56.3965-22.0215 56.3965-26.4648C56.3965-31.2988 60.0586-34.2773 64.9902-35.5469L69.5312-36.7676C71.875-37.3535 72.0215-37.6953 72.0215-39.7949L72.0215-61.3281C72.0215-64.3555 72.6562-64.9902 75.293-65.6738L89.9414-69.3359C92.7246-70.0195 93.6035-69.1406 93.6035-66.9434L93.6035-57.0801C93.6035-54.1016 92.9199-53.418 90.2832-52.7832ZM50.1465 16.2598L100.781 16.2598C103.516 16.2598 105.664 14.0137 105.664 11.4258C105.664 8.78906 103.516 6.54297 100.781 6.54297L50.1465 6.54297C47.4609 6.54297 45.3125 8.78906 45.3125 11.4258C45.3125 14.0137 47.4609 16.2598 50.1465 16.2598Z"
         id="path1386"
         style="fill:#d15d79;fill-opacity:1" />
    </g>
    <g
       id="Medium-M"
       transform="matrix(1 0 0 1 1671.97 1126)"
       style="fill:#d15d79;fill-opacity:1">
      <path
         d="M25.9766-2.05078L123.193-2.05078C132.08-2.05078 136.719-6.54297 136.719-15.5762L136.719-71.9238C136.719-80.957 132.08-85.4492 123.193-85.4492L25.9766-85.4492C17.0898-85.4492 12.4512-80.957 12.4512-71.9238L12.4512-15.5762C12.4512-6.54297 17.0898-2.05078 25.9766-2.05078ZM89.6484-53.125L77.832-50.2441C76.7578-49.9512 76.416-49.5605 76.416-47.7539L76.416-31.0547C76.416-23.6328 71.3867-18.4082 64.0625-18.4082C58.9355-18.4082 55.6152-21.5332 55.6152-25.9277C55.6152-30.8594 59.375-33.7402 64.1602-35.0098L68.7988-36.2305C71.2402-36.8652 71.4355-37.207 71.4355-39.4531L71.4355-61.6211C71.4355-64.6484 72.0215-65.2344 74.5605-65.8691L89.4043-69.5801C92.1387-70.2637 92.9688-69.3848 92.9688-67.2852L92.9688-57.3242C92.9688-54.3457 92.2363-53.7109 89.6484-53.125ZM49.6094 15.0391L99.5605 15.0391C102.002 15.0391 104.004 13.0371 104.004 10.5957C104.004 8.1543 102.002 6.10352 99.5605 6.10352L49.6094 6.10352C47.168 6.10352 45.166 8.1543 45.166 10.5957C45.166 13.0371 47.168 15.0391 49.6094 15.0391Z"
         id="path1389"
         style="fill:#d15d79;fill-opacity:1" />
    </g>
    <g
       id="Regular-M"
       transform="matrix(1 0 0 1 1376.43 1126)"
       style="fill:#d15d79;fill-opacity:1">
      <path
         d="M25-3.02734L121.875-3.02734C130.225-3.02734 134.375-7.03125 134.375-15.5762L134.375-71.5332C134.375-80.0781 130.225-84.082 121.875-84.082L25-84.082C16.6504-84.082 12.4512-80.0781 12.4512-71.5332L12.4512-15.5762C12.4512-7.03125 16.6504-3.02734 25-3.02734ZM88.8672-53.5645L76.8555-50.6348C75.6836-50.3418 75.293-49.9023 75.293-47.998L75.293-30.4199C75.293-22.998 70.3125-17.7734 62.9883-17.7734C57.8125-17.7734 54.541-20.8984 54.541-25.293C54.541-30.2734 58.4473-33.0566 63.1348-34.2773L67.8223-35.498C70.4102-36.1816 70.6055-36.6699 70.6055-38.9648L70.6055-61.9629C70.6055-65.0391 71.1426-65.5273 73.6816-66.1621L88.6719-69.873C91.4551-70.6055 92.0898-69.7266 92.0898-67.7734L92.0898-57.666C92.0898-54.6875 91.3574-54.1504 88.8672-53.5645ZM48.9258 13.4766L97.9004 13.4766C100.098 13.4766 101.855 11.7188 101.855 9.57031C101.855 7.37305 100.098 5.56641 97.9004 5.56641L48.9258 5.56641C46.7773 5.56641 44.9707 7.37305 44.9707 9.57031C44.9707 11.7188 46.7773 13.4766 48.9258 13.4766Z"
         id="path1392"
         style="fill:#d15d79;fill-opacity:1" />
    </g>
    <g
       id="Light-M"
       transform="matrix(1 0 0 1 1081.36 1126)"
       style="fill:#d15d79;fill-opacity:1">
      <path
         d="M23.877-3.17383L119.678-3.17383C127.246-3.17383 131.104-6.88477 131.104-14.5996L131.104-70.8496C131.104-78.5645 127.246-82.2754 119.678-82.2754L23.877-82.2754C16.2598-82.2754 12.4512-78.5645 12.4512-70.8496L12.4512-14.5996C12.4512-6.88477 16.2598-3.17383 23.877-3.17383ZM86.1328-52.9297L74.6582-50.1465C73.584-49.9023 73.1934-49.4629 73.1934-47.7051L73.1934-29.9805C73.1934-22.998 68.7012-18.1152 61.8164-18.1152C56.9336-18.1152 53.8574-21.0449 53.8574-25.1465C53.8574-29.8828 57.5195-32.4707 61.9141-33.6426L66.5039-34.8145C68.8965-35.498 69.0918-35.8887 69.0918-38.0371L69.0918-60.7422C69.0918-63.623 69.6289-64.0625 71.9727-64.6973L85.9375-68.1152C88.5254-68.75 89.1113-67.9199 89.1113-66.1133L89.1113-56.7871C89.1113-53.9551 88.4766-53.4668 86.1328-52.9297ZM47.9004 11.6699L95.6543 11.6699C97.3145 11.6699 98.6816 10.3516 98.6816 8.69141C98.6816 6.98242 97.3145 5.61523 95.6543 5.61523L47.9004 5.61523C46.1914 5.61523 44.8242 6.98242 44.8242 8.69141C44.8242 10.3516 46.1914 11.6699 47.9004 11.6699Z"
         id="path1395"
         style="fill:#d15d79;fill-opacity:1" />
    </g>
    <g
       id="Thin-M"
       transform="matrix(1 0 0 1 786.842 1126)"
       style="fill:#d15d79;fill-opacity:1">
      <path
         d="M22.3633-3.36914L116.748-3.36914C123.34-3.36914 126.709-6.68945 126.709-13.3301L126.709-69.9707C126.709-76.5625 123.34-79.8828 116.748-79.8828L22.3633-79.8828C15.7715-79.8828 12.4512-76.5625 12.4512-69.9707L12.4512-13.3301C12.4512-6.68945 15.7715-3.36914 22.3633-3.36914ZM82.4707-52.0508L71.7773-49.5117C70.752-49.3164 70.4102-48.9258 70.4102-47.2656L70.4102-29.4434C70.4102-23.0469 66.5527-18.5547 60.2051-18.5547C55.7617-18.5547 52.9785-21.2402 52.9785-25.0488C52.9785-29.2969 56.2988-31.6406 60.3516-32.7637L64.6973-33.9355C66.9434-34.5703 67.1387-34.9121 67.1387-36.8652L67.1387-59.082C67.1387-61.7676 67.5293-62.207 69.7266-62.7441L82.2754-65.7227C84.668-66.3086 85.2051-65.5762 85.2051-63.916L85.2051-55.6152C85.2051-53.0273 84.6191-52.5879 82.4707-52.0508ZM46.4844 9.32617L92.627 9.32617C93.7012 9.32617 94.5312 8.54492 94.5312 7.4707C94.5312 6.44531 93.7012 5.66406 92.627 5.66406L46.4844 5.66406C45.459 5.66406 44.6289 6.44531 44.6289 7.4707C44.6289 8.54492 45.459 9.32617 46.4844 9.32617Z"
         id="path1398"
         style="fill:#d15d79;fill-opacity:1" />
    </g>
    <g
       id="Ultralight-M"
       transform="matrix(1 0 0 1 491.254 1126)"
       style="fill:#d15d79;fill-opacity:1">
      <path
         d="M21.6309-3.4668L115.283-3.4668C121.338-3.4668 124.463-6.5918 124.463-12.6465L124.463-69.4824C124.463-75.5859 121.338-78.6621 115.283-78.6621L21.6309-78.6621C15.5273-78.6621 12.4512-75.5859 12.4512-69.4824L12.4512-12.6465C12.4512-6.5918 15.5273-3.4668 21.6309-3.4668ZM80.5664-51.6113L70.2637-49.2188C69.3359-49.0234 69.043-48.6328 69.043-47.0703L69.043-29.1504C69.043-23.0469 65.4297-18.75 59.4238-18.75C55.1758-18.75 52.5391-21.2891 52.5391-24.9512C52.5391-29.0039 55.6641-31.25 59.5215-32.2754L63.7695-33.4961C65.918-34.082 66.1133-34.4238 66.1133-36.2793L66.1133-58.252C66.1133-60.791 66.5039-61.2305 68.6035-61.7188L80.3711-64.502C82.666-65.0879 83.2031-64.4043 83.2031-62.793L83.2031-55.0293C83.2031-52.5391 82.6172-52.0996 80.5664-51.6113ZM45.8008 8.05664L91.1133 8.05664C91.8457 8.05664 92.3828 7.61719 92.3828 6.88477C92.3828 6.15234 91.8457 5.66406 91.1133 5.66406L45.8008 5.66406C45.0684 5.66406 44.5312 6.15234 44.5312 6.88477C44.5312 7.61719 45.0684 8.05664 45.8008 8.05664Z"
         id="path1401"
         style="fill:#d15d79;fill-opacity:1" />
    </g>
    <g
       id="Black-S"
       transform="matrix(1 0 0 1 2870.9 696)"
       style="fill:#d15d79;fill-opacity:1">
      <path
         d="M23.877-5.81055L101.123-5.81055C110.01-5.81055 115.234-11.0352 115.234-19.9219L115.234-65.2832C115.234-74.1699 110.01-79.3945 101.123-79.3945L23.877-79.3945C14.9902-79.3945 9.76562-74.1699 9.76562-65.2832L9.76562-19.9219C9.76562-11.0352 14.9902-5.81055 23.877-5.81055ZM72.998-47.7051L64.3555-45.6055C63.8184-45.459 63.7207-45.3613 63.7207-44.3359L63.7207-34.082C63.7207-28.2715 59.7168-24.1699 54.0039-24.1699C50-24.1699 47.168-26.6602 47.168-30.2734C47.168-33.8379 49.6094-36.4258 53.9062-37.5488L57.2266-38.4277C58.7402-38.8184 58.7891-38.8184 58.7891-40.1855L58.7891-54.5898C58.7891-57.0312 59.3262-57.7637 61.5723-58.3008L72.5586-61.0352C74.7559-61.5723 75.8789-60.8398 75.8789-58.7891L75.8789-51.3672C75.8789-49.0234 75.293-48.2422 72.998-47.7051ZM41.3086 9.57031L83.6914 9.57031C86.6699 9.57031 89.0137 7.03125 89.0137 4.29688C89.0137 1.5625 86.6699-0.976562 83.6914-0.976562L41.3086-0.976562C38.3301-0.976562 35.9863 1.5625 35.9863 4.29688C35.9863 7.03125 38.3301 9.57031 41.3086 9.57031Z"
         id="path1404"
         style="fill:#d15d79;fill-opacity:1" />
    </g>
    <g
       id="Heavy-S"
       transform="matrix(1 0 0 1 2575.17 696)"
       style="fill:#d15d79;fill-opacity:1">
      <path
         d="M22.998-6.78711L100.049-6.78711C108.447-6.78711 113.281-11.5723 113.281-20.0195L113.281-64.9902C113.281-73.4375 108.447-78.2227 100.049-78.2227L22.998-78.2227C14.5508-78.2227 9.76562-73.4375 9.76562-64.9902L9.76562-20.0195C9.76562-11.5723 14.5508-6.78711 22.998-6.78711ZM72.5098-48.2422L63.623-46.0449C62.9883-45.8984 62.8418-45.7031 62.8418-44.5801L62.8418-33.4961C62.8418-27.6367 58.7891-23.5352 53.0273-23.5352C48.9746-23.5352 46.1914-26.0254 46.1914-29.5898C46.1914-33.3008 48.8281-35.8398 52.9785-36.9141L56.3965-37.793C58.0566-38.2324 58.1543-38.3301 58.1543-39.7949L58.1543-55.127C58.1543-57.5684 58.6426-58.2031 60.8398-58.7402L72.168-61.5723C74.3652-62.1094 75.3418-61.377 75.3418-59.4238L75.3418-51.8066C75.3418-49.4629 74.7559-48.7305 72.5098-48.2422ZM40.7227 8.20312L82.3242 8.20312C85.0586 8.20312 87.207 5.9082 87.207 3.36914C87.207 0.78125 85.0586-1.51367 82.3242-1.51367L40.7227-1.51367C37.9883-1.51367 35.8398 0.78125 35.8398 3.36914C35.8398 5.9082 37.9883 8.20312 40.7227 8.20312Z"
         id="path1407"
         style="fill:#d15d79;fill-opacity:1" />
    </g>
    <g
       id="Bold-S"
       transform="matrix(1 0 0 1 2279.55 696)"
       style="fill:#d15d79;fill-opacity:1">
      <path
         d="M22.0215-7.86133L98.8281-7.86133C106.738-7.86133 111.084-12.1094 111.084-20.1172L111.084-64.6484C111.084-72.6562 106.738-76.9043 98.8281-76.9043L22.0215-76.9043C14.1113-76.9043 9.76562-72.6562 9.76562-64.6484L9.76562-20.1172C9.76562-12.1094 14.1113-7.86133 22.0215-7.86133ZM71.9727-48.7793L62.8418-46.582C62.0605-46.3867 61.8652-46.1426 61.8652-44.873L61.8652-32.8613C61.8652-26.9531 57.7637-22.8027 51.9531-22.8027C47.8516-22.8027 45.1172-25.293 45.1172-28.8574C45.1172-32.7148 47.9492-35.1562 51.9531-36.1816L55.5176-37.1094C57.3242-37.5488 57.4219-37.7441 57.4219-39.4043L57.4219-55.7129C57.4219-58.1543 57.9102-58.6914 60.0586-59.2285L71.6797-62.1582C73.877-62.6953 74.707-61.9629 74.707-60.1562L74.707-52.2949C74.707-49.9023 74.1211-49.3164 71.9727-48.7793ZM40.0879 6.68945L80.7617 6.68945C83.2031 6.68945 85.1562 4.63867 85.1562 2.29492C85.1562-0.0488281 83.2031-2.09961 80.7617-2.09961L40.0879-2.09961C37.6465-2.09961 35.6445-0.0488281 35.6445 2.29492C35.6445 4.63867 37.6465 6.68945 40.0879 6.68945Z"
         id="path1410"
         style="fill:#d15d79;fill-opacity:1" />
    </g>
    <g
       id="Semibold-S"
       transform="matrix(1 0 0 1 1983.6 696)"
       style="fill:#d15d79;fill-opacity:1">
      <path
         d="M21.3379-8.64258L97.998-8.64258C105.518-8.64258 109.57-12.5 109.57-20.166L109.57-64.4043C109.57-72.0703 105.518-75.9766 97.998-75.9766L21.3379-75.9766C13.7695-75.9766 9.76562-72.0703 9.76562-64.4043L9.76562-20.166C9.76562-12.5 13.7695-8.64258 21.3379-8.64258ZM71.582-49.2188L62.2559-46.9238C61.4258-46.7285 61.1816-46.4355 61.1816-45.0195L61.1816-32.4219C61.1816-26.4648 57.0801-22.2656 51.2207-22.2656C47.0703-22.2656 44.3848-24.8047 44.3848-28.3691C44.3848-32.2754 47.3145-34.668 51.2695-35.6934L54.8828-36.6211C56.7871-37.1094 56.8848-37.3535 56.8848-39.1113L56.8848-56.1035C56.8848-58.5449 57.373-59.0332 59.4727-59.5703L71.3867-62.5488C73.584-63.0859 74.3164-62.4023 74.3164-60.6445L74.3164-52.6367C74.3164-50.2441 73.7305-49.707 71.582-49.2188ZM39.6484 5.66406L79.6875 5.66406C81.9336 5.66406 83.7891 3.75977 83.7891 1.5625C83.7891-0.634766 81.9336-2.53906 79.6875-2.53906L39.6484-2.53906C37.3535-2.53906 35.5469-0.634766 35.5469 1.5625C35.5469 3.75977 37.3535 5.66406 39.6484 5.66406Z"
         id="path1413"
         style="fill:#d15d79;fill-opacity:1" />
    </g>
    <g
       id="Medium-S"
       transform="matrix(1 0 0 1 1687.47 696)"
       style="fill:#d15d79;fill-opacity:1">
      <path
         d="M20.8008-9.17969L97.3633-9.17969C104.639-9.17969 108.398-12.8418 108.398-20.2148L108.398-64.2578C108.398-71.6797 104.639-75.293 97.3633-75.293L20.8008-75.293C13.5254-75.293 9.76562-71.6797 9.76562-64.2578L9.76562-20.2148C9.76562-12.8418 13.5254-9.17969 20.8008-9.17969ZM71.3379-49.5117L61.8164-47.168C60.9375-46.9727 60.6445-46.6309 60.6445-45.166L60.6445-32.1289C60.6445-26.123 56.543-21.875 50.6348-21.875C46.4844-21.875 43.7988-24.4141 43.7988-27.9785C43.7988-31.9824 46.8262-34.3262 50.7324-35.3027L54.3945-36.2793C56.3965-36.7676 56.4941-37.0605 56.4941-38.8672L56.4941-56.3965C56.4941-58.8379 56.9824-59.3262 59.082-59.8145L71.1426-62.8418C73.3398-63.4277 73.9746-62.6953 73.9746-61.0352L73.9746-52.8809C73.9746-50.4883 73.3887-50 71.3379-49.5117ZM39.3066 4.83398L78.8574 4.83398C81.0059 4.83398 82.7148 3.07617 82.7148 1.02539C82.7148-1.07422 81.0059-2.83203 78.8574-2.83203L39.3066-2.83203C37.1582-2.83203 35.4492-1.07422 35.4492 1.02539C35.4492 3.07617 37.1582 4.83398 39.3066 4.83398Z"
         id="path1416"
         style="fill:#d15d79;fill-opacity:1" />
    </g>
    <g
       id="Regular-S"
       transform="matrix(1 0 0 1 1391.52 696)"
       style="fill:#d15d79;fill-opacity:1">
      <path
         d="M20.1172-9.91211L96.5332-9.91211C103.467-9.91211 106.885-13.2324 106.885-20.3125L106.885-64.0137C106.885-71.0938 103.467-74.3652 96.5332-74.3652L20.1172-74.3652C13.2324-74.3652 9.76562-71.0938 9.76562-64.0137L9.76562-20.3125C9.76562-13.2324 13.2324-9.91211 20.1172-9.91211ZM70.9473-49.9023L61.2793-47.5098C60.3027-47.3145 59.9609-46.9238 59.9609-45.3613L59.9609-31.6895C59.9609-25.6348 55.8594-21.3867 49.9023-21.3867C45.7031-21.3867 43.0664-23.9258 43.0664-27.4902C43.0664-31.5918 46.2402-33.8379 50-34.8145L53.8086-35.791C55.8594-36.3281 56.0059-36.7188 56.0059-38.5742L56.0059-56.7871C56.0059-59.2773 56.4941-59.6191 58.5449-60.1562L70.8008-63.2324C73.0469-63.8184 73.584-63.0859 73.584-61.5234L73.584-53.2227C73.584-50.8301 72.998-50.3906 70.9473-49.9023ZM38.8672 3.80859L77.832 3.80859C79.7363 3.80859 81.3477 2.24609 81.3477 0.292969C81.3477-1.66016 79.7363-3.27148 77.832-3.27148L38.8672-3.27148C36.9141-3.27148 35.3516-1.66016 35.3516 0.292969C35.3516 2.24609 36.9141 3.80859 38.8672 3.80859Z"
         id="path1419"
         style="fill:#d15d79;fill-opacity:1" />
    </g>
    <g
       id="Light-S"
       transform="matrix(1 0 0 1 1096.27 696)"
       style="fill:#d15d79;fill-opacity:1">
      <path
         d="M19.1406-10.0586L94.5801-10.0586C100.83-10.0586 103.955-13.0859 103.955-19.4336L103.955-63.4277C103.955-69.7754 100.83-72.8027 94.5801-72.8027L19.1406-72.8027C12.8906-72.8027 9.76562-69.7754 9.76562-63.4277L9.76562-19.4336C9.76562-13.0859 12.8906-10.0586 19.1406-10.0586ZM68.5059-49.3164L59.3262-47.1191C58.4473-46.875 58.1543-46.5332 58.1543-45.1172L58.1543-31.2988C58.1543-25.6348 54.3945-21.6797 48.877-21.6797C44.9219-21.6797 42.4805-24.0723 42.4805-27.3926C42.4805-31.2012 45.4102-33.3008 48.9746-34.2285L52.5879-35.2051C54.541-35.6934 54.6875-36.0352 54.6875-37.793L54.6875-55.7129C54.6875-58.0078 55.127-58.3984 57.0312-58.8867L68.3594-61.6699C70.459-62.207 70.9473-61.5234 70.9473-60.0586L70.9473-52.4414C70.9473-50.1953 70.4102-49.8047 68.5059-49.3164ZM37.9395 2.24609L75.8301 2.24609C77.2949 2.24609 78.5645 1.02539 78.5645-0.488281C78.5645-2.00195 77.2949-3.22266 75.8301-3.22266L37.9395-3.22266C36.4258-3.22266 35.2051-2.00195 35.2051-0.488281C35.2051 1.02539 36.4258 2.24609 37.9395 2.24609Z"
         id="path1422"
         style="fill:#d15d79;fill-opacity:1" />
    </g>
    <g
       id="Thin-S"
       transform="matrix(1 0 0 1 801.491 696)"
       style="fill:#d15d79;fill-opacity:1">
      <path
         d="M17.8223-10.2539L92.041-10.2539C97.4121-10.2539 100.098-12.8906 100.098-18.3105L100.098-62.5977C100.098-68.0176 97.4121-70.6543 92.041-70.6543L17.8223-70.6543C12.5-70.6543 9.76562-68.0176 9.76562-62.5977L9.76562-18.3105C9.76562-12.8906 12.5-10.2539 17.8223-10.2539ZM65.2832-48.584L56.7383-46.5332C55.957-46.3867 55.7129-46.0449 55.7129-44.7754L55.7129-30.8105C55.7129-25.6836 52.5391-22.0703 47.4609-22.0703C43.8965-22.0703 41.6504-24.2188 41.6504-27.2949C41.6504-30.7129 44.3359-32.5684 47.5586-33.4473L51.0254-34.375C52.832-34.9121 52.9785-35.1562 52.9785-36.7676L52.9785-54.248C52.9785-56.3477 53.3203-56.7383 55.0781-57.1289L65.1367-59.5703C67.041-60.0586 67.4805-59.4727 67.4805-58.1055L67.4805-51.416C67.4805-49.3652 66.9922-48.9746 65.2832-48.584ZM36.7188 0.0976562L73.1445 0.0976562C74.1211 0.0976562 74.8535-0.585938 74.8535-1.51367C74.8535-2.49023 74.1211-3.22266 73.1445-3.22266L36.7188-3.22266C35.791-3.22266 35.0098-2.49023 35.0098-1.51367C35.0098-0.585938 35.791 0.0976562 36.7188 0.0976562Z"
         id="path1425"
         style="fill:#d15d79;fill-opacity:1" />
    </g>
    <g
       id="Ultralight-S"
       transform="matrix(1 0 0 1 505.78 696)"
       style="fill:#d15d79;fill-opacity:1">
      <path
         d="M17.1387-10.3516L90.7227-10.3516C95.6055-10.3516 98.0957-12.793 98.0957-17.7246L98.0957-62.207C98.0957-67.0898 95.6055-69.5801 90.7227-69.5801L17.1387-69.5801C12.2559-69.5801 9.76562-67.0898 9.76562-62.207L9.76562-17.7246C9.76562-12.793 12.2559-10.3516 17.1387-10.3516ZM63.623-48.1934L55.4199-46.2402C54.6875-46.0938 54.4434-45.8008 54.4434-44.5801L54.4434-30.5176C54.4434-25.6836 51.5625-22.2656 46.7285-22.2656C43.3594-22.2656 41.2598-24.3164 41.2598-27.1973C41.2598-30.4199 43.7988-32.2266 46.8262-33.0566L50.1953-33.9844C51.9043-34.4727 52.0508-34.7168 52.0508-36.2305L52.0508-53.5156C52.0508-55.5176 52.3438-55.8594 54.0527-56.25L63.4766-58.4961C65.2832-58.9355 65.6738-58.3984 65.6738-57.1289L65.6738-50.8789C65.6738-48.9258 65.2344-48.584 63.623-48.1934ZM36.084-0.976562L71.7773-0.976562C72.4609-0.976562 72.9492-1.41602 72.9492-2.05078C72.9492-2.73438 72.4609-3.17383 71.7773-3.17383L36.084-3.17383C35.4492-3.17383 34.9121-2.73438 34.9121-2.05078C34.9121-1.41602 35.4492-0.976562 36.084-0.976562Z"
         id="path1428"
         style="fill:#d15d79;fill-opacity:1" />
    </g>
  </g>
</svg>
